<svg width="445" height="352" viewBox="0 0 445 352" fill="none" xmlns="http://www.w3.org/2000/svg">
<path d="M45.5 330.5V330.5C31.969 330.5 21 319.531 21 306V56C21 36.67 36.67 21 56 21H94.9705C105.149 21 114.822 25.4305 121.471 33.1368L144.529 59.8632C151.178 67.5695 160.851 72 171.029 72H344.5C363.83 72 379.5 87.67 379.5 107V130.5M45.5 330.5H352.826C368.581 330.5 382.395 319.972 386.573 304.78L422.323 174.78C428.45 152.499 411.684 130.5 388.576 130.5H379.5M45.5 330.5L93.4271 156.22C97.6049 141.028 111.419 130.5 127.174 130.5H379.5" stroke="black" stroke-width="42"/>
</svg>
