<svg width="666" height="689" viewBox="0 0 666 689" fill="none" xmlns="http://www.w3.org/2000/svg">
<g clip-path="url(#clip0_458_97)">
<path fill-rule="evenodd" clip-rule="evenodd" d="M299.825 184.742C287.828 151.752 241.172 151.753 229.175 184.742L174.66 334.66L24.7422 389.176C-8.24758 401.172 -8.24724 447.828 24.7423 459.824L174.66 514.34L229.175 664.259C241.172 697.246 287.828 697.246 299.825 664.259L354.34 514.34L504.257 459.824C537.248 447.828 537.248 401.172 504.257 389.176L354.34 334.66L299.825 184.742Z" fill="black"/>
</g>
<g clip-path="url(#clip1_458_97)">
<path fill-rule="evenodd" clip-rule="evenodd" d="M546.863 12.9558C540.627 -4.31868 516.373 -4.3185 510.137 12.9558L481.797 91.4571L403.862 120.003C386.713 126.285 386.713 150.715 403.862 156.997L481.797 185.543L510.137 264.045C516.373 281.318 540.627 281.318 546.863 264.045L575.203 185.543L653.138 156.997C670.288 150.715 670.288 126.285 653.138 120.003L575.203 91.4571L546.863 12.9558Z" fill="black"/>
</g>
<defs>
<clipPath id="clip0_458_97">
<rect width="529" height="529" fill="white" transform="translate(0 160)"/>
</clipPath>
<clipPath id="clip1_458_97">
<rect width="275" height="277" fill="white" transform="translate(391)"/>
</clipPath>
</defs>
</svg>
