<svg width="1534" height="133" viewBox="0 0 1534 133" fill="none" xmlns="http://www.w3.org/2000/svg">
<path d="M90.7447 24.3119C90.7447 26.0186 90.2753 27.2986 89.3367 28.1519C88.398 28.9199 86.6487 29.3893 84.0887 29.5599C81.102 29.9866 77.9873 30.3279 74.7447 30.5839C71.5873 30.8399 68.2593 31.1386 64.7607 31.4799C62.6273 38.3919 60.4087 45.6879 58.1047 53.3679C55.8007 60.9626 53.4967 68.6426 51.1927 76.4079C48.8887 84.0879 46.67 91.7253 44.5367 99.3199C42.4887 106.915 40.5687 114.125 38.7767 120.952L38.9047 120.824C38.478 122.787 37.7527 124.152 36.7287 124.92C35.7047 125.688 34.4247 126.072 32.8887 126.072C31.694 126.072 30.2007 125.816 28.4087 125.304C26.6167 124.792 24.8247 124.195 23.0327 123.512H23.1607C19.7473 122.317 16.9313 120.952 14.7127 119.416C12.5793 117.795 11.5127 115.363 11.5127 112.12C11.5127 111.096 11.726 109.731 12.1527 108.024V108.152C12.9207 103.885 13.9447 98.7653 15.2247 92.7919C16.59 86.8186 18.0833 80.5893 19.7047 74.1039C21.326 67.5333 23.0327 60.9626 24.8247 54.3919C26.702 47.7359 28.494 41.5919 30.2007 35.9599C27.726 36.3866 25.5927 36.8133 23.8007 37.2399C22.0087 37.6666 20.302 37.8799 18.6807 37.8799C16.8887 37.8799 15.2673 37.3253 13.8167 36.2159C12.4513 35.0213 11.214 33.5706 10.1047 31.8639C9.08066 30.1573 8.14199 28.3653 7.28866 26.4879C6.52066 24.6106 5.88066 22.9039 5.36866 21.3679L4.98466 20.2159V20.3439C4.64332 19.3199 4.47266 18.2533 4.47266 17.1439C4.47266 15.5226 4.89932 14.3706 5.75266 13.6879C6.69132 12.9199 8.01399 12.3653 9.72066 12.0239C14.2433 11.1706 19.3207 10.3599 24.9527 9.59194C30.67 8.82394 36.4727 8.14127 42.3607 7.54394C48.2487 6.94661 54.0087 6.43461 59.6407 6.00794C65.2727 5.58128 70.35 5.28261 74.8727 5.11194C77.6033 5.11194 79.6513 5.45327 81.0167 6.13594C82.382 6.73328 83.5767 7.62928 84.6007 8.82394C85.3687 9.84794 86.094 10.9999 86.7767 12.2799C87.5447 13.5599 88.2273 14.9253 88.8247 16.3759C89.422 17.7413 89.8913 19.1066 90.2327 20.4719C90.574 21.8373 90.7447 23.1173 90.7447 24.3119Z" fill="white"/>
<path d="M177.522 23.5439C175.388 29.6879 173.042 36.7279 170.482 44.6639C167.922 52.5999 165.319 60.8773 162.674 69.4959C160.114 78.1146 157.554 86.8186 154.994 95.6079C152.519 104.397 150.258 112.675 148.21 120.44L148.338 120.056C148.167 122.189 147.57 123.64 146.546 124.408C145.522 125.261 144.114 125.688 142.322 125.688C141.127 125.688 139.804 125.475 138.354 125.048C136.988 124.707 135.495 124.323 133.874 123.896C132.082 123.043 130.418 122.317 128.882 121.72C127.346 121.037 125.98 120.312 124.786 119.544C123.591 118.776 122.652 117.837 121.97 116.728C121.287 115.533 120.946 113.997 120.946 112.12C120.946 111.011 121.159 109.688 121.586 108.152V108.28C122.183 105.293 122.908 101.88 123.762 98.0399C124.7 94.1146 125.724 89.8479 126.834 85.2399C124.103 85.6666 121.415 86.0933 118.77 86.5199C116.21 86.8613 113.65 87.2453 111.09 87.6719C109.554 92.6213 108.188 97.3146 106.994 101.752C105.799 106.189 104.732 110.413 103.794 114.424C103.282 116.301 102.855 117.965 102.514 119.416C102.172 120.781 101.746 121.933 101.234 122.872C100.807 123.811 100.21 124.493 99.4417 124.92C98.6737 125.432 97.6497 125.688 96.3697 125.688C95.8577 125.688 95.2603 125.645 94.5777 125.56C93.9803 125.475 93.255 125.304 92.4017 125.048C90.183 124.109 88.007 123.299 85.8737 122.616C83.8257 121.848 81.991 121.037 80.3697 120.184C78.663 119.245 77.3403 118.179 76.4017 116.984C75.3777 115.704 74.8657 114.083 74.8657 112.12C74.8657 110.755 75.1643 109.219 75.7617 107.512C77.9803 100.856 80.1563 93.4319 82.2897 85.2399C84.5083 76.9626 86.6843 68.5573 88.8177 60.0239C90.951 51.4053 92.999 42.9573 94.9617 34.6799C96.9243 26.4026 98.8017 18.8506 100.594 12.0239C101.362 9.97594 102.215 8.52528 103.154 7.67194C104.178 6.81861 105.543 6.39194 107.25 6.39194C108.018 6.39194 109.212 6.64794 110.834 7.15994C112.54 7.67194 114.332 8.31194 116.21 9.07994C118.087 9.84794 119.922 10.7013 121.714 11.6399C123.591 12.5786 125.17 13.5173 126.45 14.4559L126.322 14.3279C128.114 15.5226 129.394 16.6746 130.162 17.7839C130.93 18.8079 131.314 20.0453 131.314 21.4959C131.314 22.7759 131.058 24.1839 130.546 25.7199C129.095 29.9013 127.431 34.8506 125.554 40.5679C123.676 46.1999 121.714 52.3439 119.666 58.9999C121.714 58.8293 123.762 58.6586 125.81 58.4879C127.858 58.3173 129.82 58.1466 131.698 57.9759H131.57L134.002 57.8479C136.476 49.3999 138.866 41.0799 141.17 32.8879C143.559 24.6106 145.863 17.2719 148.082 10.8719C148.764 8.65327 149.66 7.07461 150.77 6.13594C151.879 5.19728 153.287 4.72794 154.994 4.72794C156.359 4.72794 157.895 5.02661 159.602 5.62394H159.474C161.266 6.13594 163.271 6.86127 165.49 7.79994C167.708 8.73861 169.756 9.84794 171.634 11.1279C173.511 12.4079 175.09 13.7733 176.37 15.2239C177.65 16.6746 178.29 18.0826 178.29 19.4479C178.29 20.6426 178.034 22.0079 177.522 23.5439Z" fill="white"/>
<path d="M186.796 15.3519L188.46 13.5599C191.873 12.7066 195.585 11.8533 199.596 10.9999C203.692 10.0613 207.916 9.20794 212.268 8.43994C216.705 7.67194 221.228 6.98927 225.836 6.39194C230.444 5.79461 235.009 5.41061 239.532 5.23994H240.172C242.902 5.23994 244.993 5.79461 246.444 6.90394C247.98 8.01327 249.132 9.67727 249.9 11.8959V11.7679C250.753 13.7306 251.35 15.3519 251.692 16.6319C252.033 17.9119 252.332 19.2773 252.588 20.7279L252.46 20.5999C252.801 21.7093 252.972 22.8613 252.972 24.0559C252.972 26.3599 252.46 27.9813 251.436 28.9199C250.412 29.8586 248.492 30.4986 245.676 30.8399C241.238 31.2666 236.673 31.7786 231.98 32.3759C227.286 32.8879 222.294 33.5279 217.004 34.2959C215.98 37.1119 214.913 40.1839 213.804 43.5119C212.694 46.7546 211.542 49.9973 210.348 53.2399C214.017 52.8133 217.729 52.5573 221.484 52.4719H222.38C224.854 52.4719 226.817 52.8559 228.268 53.6239C229.718 54.3919 230.913 55.8426 231.852 57.9759V57.8479C232.876 59.8106 233.601 61.6879 234.028 63.4799C234.454 65.1866 234.881 66.9359 235.308 68.7279L235.18 68.5999C235.521 69.8799 235.692 70.9039 235.692 71.6719C235.692 73.1226 235.18 74.3173 234.156 75.2559C233.217 76.1093 231.937 76.7919 230.316 77.3039C228.78 77.8159 226.945 78.2426 224.812 78.5839C222.764 78.8399 220.63 79.1386 218.412 79.4799H218.54C215.297 80.1626 212.14 80.8026 209.068 81.3999C205.996 81.9119 202.966 82.5093 199.98 83.1919C199.297 84.8986 198.614 86.7759 197.932 88.8239C197.249 90.7866 196.822 92.5359 196.652 94.0719C199.894 93.4746 203.222 92.9199 206.636 92.4079C210.134 91.8959 213.804 91.6399 217.644 91.6399C219.948 91.6399 221.782 92.1093 223.148 93.0479C224.598 93.9013 225.708 95.3519 226.476 97.3999V97.2719C227.5 99.3199 228.396 101.581 229.164 104.056C230.017 106.531 230.444 108.877 230.444 111.096C230.444 113.059 229.974 114.424 229.036 115.192C228.097 115.96 226.39 116.6 223.916 117.112C218.454 118.307 212.822 119.544 207.02 120.824C201.302 122.019 195.756 123.213 190.38 124.408L190.508 124.28C188.118 124.877 186.113 125.176 184.492 125.176C182.614 125.176 180.95 124.92 179.5 124.408C178.134 123.896 176.854 123.171 175.66 122.232C174.465 121.208 173.228 120.056 171.948 118.776C170.753 117.411 169.43 115.875 167.98 114.168V114.296C166.785 113.016 165.846 111.608 165.164 110.072C164.481 108.536 164.14 106.659 164.14 104.44C164.14 103.16 164.268 101.88 164.524 100.6L186.796 15.3519Z" fill="white"/>
<path d="M365.711 109.176C366.137 109.859 366.649 110.627 367.247 111.48C367.844 112.248 368.399 113.059 368.911 113.912C369.423 114.68 369.849 115.491 370.191 116.344C370.617 117.112 370.831 117.795 370.831 118.392C370.831 120.781 369.423 122.659 366.607 124.024L366.735 123.896C364.601 125.176 362.468 126.2 360.335 126.968C358.201 127.821 355.94 128.248 353.551 128.248C350.052 128.248 347.065 126.968 344.591 124.408C344.249 123.896 343.951 123.597 343.695 123.512C341.903 124.195 339.983 124.664 337.935 124.92C335.972 125.261 333.967 125.432 331.919 125.432C318.948 125.432 309.135 122.189 302.479 115.704C295.908 109.133 292.623 99.3199 292.623 86.2639C292.623 79.8639 293.391 73.2079 294.927 66.2959C296.463 59.2986 298.681 52.4719 301.583 45.8159C304.569 39.1599 308.196 32.8879 312.463 26.9999C316.729 21.1119 321.551 16.0346 326.927 11.7679C329.487 9.89061 332.431 8.39728 335.759 7.28794C339.087 6.17861 342.287 5.62394 345.359 5.62394C346.041 5.62394 346.681 5.66661 347.279 5.75194C347.876 5.75194 348.431 5.79461 348.943 5.87994C355.769 6.98927 361.273 8.69594 365.455 10.9999C369.721 13.2186 373.007 15.9493 375.311 19.1919C377.7 22.3493 379.279 25.9333 380.047 29.9439C380.9 33.9546 381.327 38.2639 381.327 42.8719C381.327 47.7359 380.943 52.8986 380.175 58.3599C379.492 63.8213 378.425 69.3253 376.975 74.8719C375.524 80.3333 373.647 85.7093 371.343 90.9999C369.124 96.2053 366.479 101.069 363.407 105.592C363.833 106.104 364.217 106.659 364.559 107.256C364.9 107.853 365.284 108.493 365.711 109.176ZM326.927 102.392C327.097 102.392 327.183 102.392 327.183 102.392L326.927 101.624C326.244 100.515 325.689 99.6186 325.263 98.9359C324.921 98.2533 324.751 97.3999 324.751 96.3759C324.751 95.0106 325.177 93.8159 326.031 92.7919C326.884 91.7679 327.993 90.8719 329.359 90.1039C330.809 89.3359 332.473 88.6959 334.351 88.1839C336.228 87.5866 338.148 87.0746 340.111 86.6479C341.732 83.4906 343.225 79.9493 344.591 76.0239C346.041 72.0986 347.321 68.0879 348.431 63.9919C349.54 59.8106 350.393 55.6293 350.991 51.4479C351.673 47.1813 352.015 43.1706 352.015 39.4159C352.015 37.3679 351.844 35.4053 351.503 33.5279C351.247 31.6506 350.82 30.7119 350.223 30.7119C349.028 30.7119 347.663 31.4373 346.127 32.8879C344.591 34.2533 342.969 36.1306 341.263 38.5199C339.641 40.9093 338.02 43.6826 336.399 46.8399C334.777 49.9119 333.199 53.1546 331.663 56.5679C330.212 59.9813 328.889 63.4373 327.695 66.9359C326.5 70.3493 325.561 73.5919 324.879 76.6639L325.007 76.5359C323.727 82.3386 323.087 87.4586 323.087 91.8959C323.087 94.6266 323.3 96.9306 323.727 98.8079C324.239 100.6 325.049 101.752 326.159 102.264L326.031 102.136C326.543 102.307 326.841 102.392 326.927 102.392Z" fill="white"/>
<path d="M383.659 106.488C382.037 102.221 381.227 97.1013 381.227 91.1279C381.227 85.6666 381.824 79.6933 383.019 73.2079C384.299 66.6373 385.92 59.9386 387.883 53.1119C389.931 46.2853 392.149 39.5013 394.539 32.7599C397.013 25.9333 399.488 19.4906 401.963 13.4319C402.816 11.3839 403.755 9.93327 404.779 9.07994C405.888 8.14128 407.296 7.67194 409.003 7.67194C411.051 7.67194 413.312 8.14128 415.787 9.07994C418.347 10.0186 420.736 11.2986 422.955 12.9199C425.173 14.4559 427.051 16.2479 428.587 18.2959C430.123 20.3439 430.891 22.4773 430.891 24.6959C430.891 26.3173 430.507 28.0666 429.739 29.9439L429.867 29.8159C427.904 34.6799 425.813 40.1413 423.595 46.1999C421.461 52.1733 419.413 58.2319 417.451 64.3759C415.573 70.4346 413.995 76.2373 412.715 81.7839C411.52 87.2453 410.923 91.8533 410.923 95.6079C410.923 97.5706 411.093 99.1493 411.435 100.344C411.776 101.539 412.373 102.136 413.227 102.136C415.104 102.136 417.067 100.6 419.115 97.5279C421.248 94.3706 423.339 90.2319 425.387 85.1119C427.52 79.9919 429.611 74.2319 431.659 67.8319C433.792 61.3466 435.797 54.7759 437.675 48.1199C439.552 41.4639 441.259 35.0213 442.795 28.7919C444.416 22.5626 445.781 17.1013 446.891 12.4079L446.763 12.6639C447.189 10.2746 448.043 8.61061 449.323 7.67194C450.688 6.73327 452.309 6.26394 454.187 6.26394C455.467 6.26394 456.832 6.51994 458.283 7.03194C459.819 7.45861 461.355 8.01328 462.891 8.69594C464.512 9.37861 466.091 10.1466 467.627 10.9999C469.248 11.8533 470.741 12.6639 472.107 13.4319C473.984 14.6266 475.264 15.7786 475.947 16.8879C476.629 17.9119 476.971 19.1493 476.971 20.5999C476.971 21.1973 476.928 21.8373 476.843 22.5199C476.757 23.1173 476.587 23.7999 476.331 24.5679C473.429 36.6853 470.485 47.9919 467.499 58.4879C464.597 68.9839 461.483 78.4133 458.155 86.7759C454.912 95.0533 451.371 102.136 447.531 108.024C443.691 113.912 439.467 118.307 434.859 121.208C432.128 122.659 429.355 123.725 426.539 124.408C423.808 125.091 420.821 125.432 417.579 125.432C409.131 125.432 402.048 123.981 396.331 121.08C390.613 118.093 386.389 113.229 383.659 106.488Z" fill="white"/>
<path d="M512.244 14.4559L512.116 14.3279C513.822 15.5226 515.017 16.6746 515.7 17.7839C516.468 18.8079 516.852 20.0453 516.852 21.4959C516.852 22.7759 516.596 24.2266 516.084 25.8479C514.804 29.5173 513.396 33.8266 511.86 38.7759C510.324 43.6399 508.702 48.8879 506.996 54.5199C505.374 60.0666 503.71 65.8266 502.004 71.7999C500.382 77.7733 498.761 83.6613 497.14 89.4639C495.604 95.1813 494.11 100.728 492.66 106.104C491.294 111.395 490.057 116.173 488.948 120.44C488.35 122.317 487.668 123.64 486.9 124.408C486.217 125.261 485.022 125.688 483.316 125.688C482.889 125.688 482.377 125.645 481.78 125.56C481.182 125.475 480.5 125.304 479.732 125.048C477.684 124.365 475.678 123.683 473.716 123C471.753 122.317 469.961 121.507 468.34 120.568C466.718 119.544 465.438 118.349 464.5 116.984C463.476 115.619 462.964 113.955 462.964 111.992C462.964 111.139 463.006 110.456 463.092 109.944C463.177 109.347 463.305 108.664 463.476 107.896C463.988 104.568 464.756 100.429 465.78 95.4799C466.804 90.4453 467.998 85.0266 469.364 79.2239C470.729 73.4213 472.18 67.4053 473.716 61.1759C475.337 54.8613 476.916 48.7599 478.452 42.8719C479.988 36.8986 481.481 31.3093 482.932 26.1039C484.382 20.8986 485.705 16.4613 486.9 12.7919C487.753 10.5733 488.692 9.03728 489.716 8.18394C490.74 7.24527 492.105 6.77594 493.812 6.77594C494.921 6.77594 496.244 7.03194 497.78 7.54394C499.401 7.97061 501.065 8.56794 502.772 9.33594C504.564 10.0186 506.27 10.8293 507.892 11.7679C509.513 12.6213 510.964 13.5173 512.244 14.4559Z" fill="white"/>
<path d="M574.927 87.7999C577.145 88.4826 578.724 89.4639 579.663 90.7439C580.687 91.9386 581.199 93.3893 581.199 95.0959C581.199 96.2906 580.943 97.5706 580.431 98.9359C579.919 100.216 579.321 101.581 578.639 103.032C575.14 110.2 570.447 116.003 564.559 120.44C558.671 124.877 551.631 127.096 543.439 127.096C542.756 127.096 542.159 127.096 541.647 127.096C541.135 127.096 540.665 127.053 540.239 126.968H540.367C536.527 126.541 533.071 125.816 529.999 124.792C526.927 123.768 524.153 122.787 521.679 121.848H521.807C520.527 121.507 519.204 120.909 517.839 120.056C516.473 119.117 515.151 118.008 513.871 116.728C512.676 115.448 511.567 114.04 510.543 112.504C509.604 110.968 508.879 109.432 508.367 107.896V108.152C507.343 105.677 506.617 102.947 506.191 99.9599C505.679 96.8879 505.423 93.6879 505.423 90.3599C505.423 85.1546 506.063 79.4373 507.343 73.2079C508.623 66.8933 510.457 60.5359 512.847 54.1359C515.236 47.7359 518.095 41.5493 521.423 35.5759C524.751 29.6026 528.42 24.3119 532.431 19.7039C536.527 15.0106 540.921 11.2559 545.615 8.43994C550.308 5.62394 555.215 4.21594 560.335 4.21594C560.761 4.21594 561.188 4.21594 561.615 4.21594C562.127 4.21594 562.596 4.25861 563.023 4.34394H562.895C565.028 4.59994 567.247 4.98394 569.551 5.49594C571.855 6.00794 574.073 6.64794 576.207 7.41594C578.34 8.18394 580.345 9.07994 582.223 10.1039C584.185 11.0426 585.849 12.0666 587.215 13.1759C590.713 15.9066 592.975 18.7226 593.999 21.6239C595.023 24.5253 595.535 27.7253 595.535 31.2239C595.535 33.1013 595.449 35.1493 595.279 37.3679C595.108 39.5013 594.852 41.6346 594.511 43.7679C594.169 45.9013 593.743 47.9919 593.231 50.0399C592.804 52.0026 592.292 53.7519 591.695 55.2879C591.524 55.4586 591.396 55.6293 591.311 55.7999C590.799 57.2506 590.159 58.4026 589.391 59.2559C588.708 60.0239 587.257 60.4079 585.039 60.4079C584.612 60.4079 584.143 60.4079 583.631 60.4079C583.119 60.4079 582.564 60.3226 581.967 60.1519C579.065 59.5546 576.633 58.7866 574.671 57.8479C572.708 56.8239 571.087 55.6293 569.807 54.2639C568.527 52.8133 567.545 51.1493 566.863 49.2719C566.18 47.3946 565.711 45.2613 565.455 42.8719C565.455 41.2506 565.497 39.6293 565.583 38.0079C565.753 36.3013 565.839 34.8079 565.839 33.5279C565.839 32.5893 565.753 31.7359 565.583 30.9679C565.412 30.1146 565.113 29.5173 564.687 29.1759C563.407 29.2613 561.743 30.5413 559.695 33.0159C557.647 35.4053 555.513 38.3919 553.295 41.9759C551.161 45.5599 549.071 49.4853 547.023 53.7519C544.975 57.9333 543.268 61.9013 541.903 65.6559C540.196 70.5199 538.873 75.4266 537.935 80.3759C536.996 85.3253 536.527 89.6773 536.527 93.4319C536.527 95.9066 536.74 97.9973 537.167 99.7039C537.593 101.325 538.319 102.349 539.343 102.776H539.855C542.5 102.776 546.767 99.5759 552.655 93.1759C556.921 88.7386 561.828 86.5199 567.375 86.5199C568.569 86.5199 569.764 86.6479 570.959 86.9039C572.239 87.0746 573.561 87.3733 574.927 87.7999Z" fill="white"/>
<path d="M685.447 32.2479C683.484 35.3199 680.924 38.7759 677.767 42.6159C674.695 46.3706 671.239 50.2959 667.399 54.3919C663.644 58.4026 659.719 62.4559 655.623 66.5519C651.612 70.6479 647.687 74.5306 643.847 78.1999C645.809 82.1253 647.985 86.0933 650.375 90.1039C652.764 94.0293 654.983 97.6986 657.031 101.112C659.079 104.525 660.785 107.427 662.151 109.816C663.516 112.205 664.199 113.741 664.199 114.424C664.199 115.789 663.772 116.899 662.919 117.752C662.151 118.52 660.956 119.373 659.335 120.312L659.463 120.184C657.329 121.293 654.855 122.232 652.039 123C649.308 123.683 647.004 124.024 645.127 124.024C643.164 124.024 641.244 123.469 639.367 122.36C637.489 121.251 635.527 119.501 633.479 117.112C631.431 114.723 629.212 111.651 626.823 107.896C624.433 104.141 621.703 99.6186 618.631 94.3279C617.265 99.2773 615.985 103.928 614.791 108.28C613.596 112.547 612.487 116.557 611.463 120.312L611.591 119.928C611.42 122.147 610.823 123.683 609.799 124.536C608.775 125.475 607.409 125.944 605.703 125.944C604.593 125.944 603.356 125.731 601.991 125.304C600.711 124.963 599.303 124.536 597.767 124.024C595.548 123.256 593.585 122.531 591.879 121.848C590.257 121.165 588.892 120.355 587.783 119.416C586.588 118.477 585.735 117.368 585.223 116.088C584.625 114.808 584.327 113.272 584.327 111.48C584.327 110.285 584.455 109.048 584.711 107.768V107.896C585.223 104.568 586.033 100.387 587.143 95.3519C588.252 90.2319 589.575 84.6853 591.111 78.7119C592.561 72.7386 594.097 66.5519 595.719 60.1519C597.425 53.6666 599.132 47.3946 600.839 41.3359C602.545 35.2773 604.167 29.6026 605.703 24.3119C607.324 19.0213 608.732 14.5413 609.927 10.8719C610.78 8.82394 611.761 7.37328 612.871 6.51994C614.065 5.58127 615.516 5.11194 617.223 5.11194C617.82 5.11194 618.417 5.15461 619.015 5.23994C619.697 5.32528 620.465 5.49594 621.319 5.75194H621.191C623.324 6.34927 625.585 7.15994 627.975 8.18394C630.364 9.12261 632.54 10.2319 634.503 11.5119C636.465 12.7919 638.087 14.1573 639.367 15.6079C640.647 17.0586 641.287 18.4666 641.287 19.8319C641.287 20.4293 641.201 21.0693 641.031 21.7519C640.86 22.4346 640.561 23.2453 640.135 24.1839L640.263 24.0559C639.068 27.0426 637.873 30.3706 636.679 34.0399C635.484 37.7093 634.204 41.7199 632.839 46.0719L634.375 44.6639C637.703 41.2506 641.031 37.8373 644.359 34.4239C647.687 30.9253 650.887 27.5973 653.959 24.4399C657.031 21.1973 659.847 18.2106 662.407 15.4799C664.967 12.6639 667.1 10.2319 668.807 8.18394L668.679 8.31194C670.556 5.92261 672.433 4.72794 674.311 4.72794C675.505 4.72794 676.913 5.28261 678.535 6.39194C680.156 7.50127 681.692 8.90927 683.143 10.6159C684.679 12.3226 685.959 14.2853 686.983 16.5039C688.092 18.7226 688.647 20.8986 688.647 23.0319C688.647 25.6773 687.58 28.7493 685.447 32.2479Z" fill="white"/>
<path d="M810.57 59.3839C808.948 60.6639 807.284 61.9439 805.578 63.2239C803.956 64.5039 802.164 65.7839 800.202 67.0639C802.847 69.2826 804.98 72.1839 806.602 75.7679C808.223 79.2666 809.034 82.7226 809.034 86.1359C809.034 90.2319 808.138 93.7733 806.346 96.7599C804.639 99.7466 802.079 102.691 798.666 105.592H798.794C796.404 107.896 793.546 110.072 790.218 112.12C786.975 114.168 783.519 116.045 779.85 117.752C776.266 119.459 772.639 120.995 768.97 122.36C765.3 123.725 761.844 124.877 758.602 125.816H758.73C755.658 126.84 753.098 127.352 751.05 127.352C749.514 127.352 748.106 127.096 746.826 126.584C745.546 126.072 744.138 125.261 742.602 124.152C740.127 122.957 737.652 121.507 735.178 119.8C732.788 118.008 730.612 115.661 728.65 112.76L728.778 112.888C727.583 111.267 726.644 109.859 725.962 108.664C725.279 107.384 724.938 105.763 724.938 103.8C724.938 102.947 725.023 102.136 725.194 101.368C725.279 100.515 725.407 99.6186 725.578 98.6799C726.602 92.7919 727.924 86.4346 729.546 79.6079C731.252 72.6959 732.959 65.6559 734.666 58.4879C736.372 51.2346 737.994 43.9813 739.53 36.7279C741.151 29.4746 742.431 22.5626 743.37 15.9919C746.442 14.4559 749.855 13.0053 753.61 11.6399C757.45 10.2746 761.375 9.07994 765.386 8.05594C769.396 7.03194 773.45 6.22128 777.546 5.62394C781.727 5.02661 785.695 4.72794 789.45 4.72794C794.314 4.72794 798.836 5.28261 803.018 6.39194C807.199 7.50127 810.442 9.29327 812.746 11.7679C814.111 13.3039 815.434 14.9679 816.714 16.7599C817.994 18.4666 819.146 20.3439 820.17 22.3919C821.194 24.3546 822.004 26.4879 822.602 28.7919C823.199 31.0106 823.498 33.3573 823.498 35.8319C823.498 40.4399 822.218 44.7493 819.658 48.7599C817.183 52.7706 814.154 56.3119 810.57 59.3839ZM769.354 50.8079C768.927 51.8319 768.586 52.7706 768.33 53.6239C772.426 52.0026 776.138 50.2106 779.466 48.2479C782.794 46.1999 785.61 44.1946 787.914 42.2319C790.303 40.2693 792.095 38.4346 793.29 36.7279C794.57 35.0213 795.21 33.6133 795.21 32.5039C795.21 31.8213 793.759 31.4799 790.858 31.4799C788.81 31.4799 786.378 31.8213 783.562 32.5039C780.746 33.1866 777.674 34.2533 774.346 35.7039C773.492 38.0079 772.639 40.4399 771.786 42.9999C771.018 45.4746 770.207 48.0773 769.354 50.8079ZM771.402 79.2239C768.159 79.2239 764.191 79.9919 759.498 81.5279C758.644 84.5146 757.791 87.3306 756.938 89.9759C756.17 92.6213 755.359 95.3093 754.506 98.0399C758.09 96.9306 761.332 95.6933 764.234 94.3279C767.22 92.8773 769.738 91.4266 771.786 89.9759C773.919 88.5253 775.583 87.0746 776.778 85.6239C777.972 84.1733 778.57 82.8079 778.57 81.5279C778.399 80.8453 777.716 80.2906 776.522 79.8639C775.327 79.4373 773.62 79.2239 771.402 79.2239Z" fill="#4BE920"/>
<path d="M873.431 120.184C871.724 118.733 869.804 116.984 867.671 114.936C865.537 112.888 863.319 110.669 861.015 108.28C858.796 105.805 856.577 103.245 854.359 100.6C852.14 97.9546 850.049 95.2666 848.087 92.5359C846.636 97.3999 845.228 102.093 843.863 106.616C842.497 111.139 841.175 115.704 839.895 120.312C839.383 122.019 838.657 123.299 837.719 124.152C836.865 125.005 835.585 125.432 833.879 125.432C832.855 125.432 831.788 125.261 830.679 124.92C828.631 124.323 826.668 123.768 824.791 123.256C822.913 122.744 821.249 122.104 819.799 121.336C818.348 120.483 817.196 119.373 816.343 118.008C815.489 116.643 815.063 114.808 815.063 112.504C815.063 111.309 815.191 109.987 815.447 108.536C816.044 105.805 816.94 101.752 818.135 96.3759C819.329 90.9146 820.652 84.9413 822.103 78.4559C823.639 71.8853 825.26 65.1013 826.967 58.1039C828.759 51.1066 830.551 44.6639 832.343 38.7759C834.22 32.8879 836.097 27.8959 837.975 23.7999C839.852 19.7039 841.644 17.2719 843.351 16.5039C846.508 15.0533 849.793 13.6453 853.207 12.2799C856.62 10.8293 860.033 9.59194 863.447 8.56794C866.945 7.45861 870.359 6.56261 873.687 5.87994C877.1 5.19728 880.343 4.85594 883.415 4.85594C886.999 4.85594 890.412 5.41061 893.655 6.51994C896.983 7.62928 899.841 9.54928 902.231 12.2799C903.681 13.9866 905.132 15.8639 906.583 17.9119C908.119 19.8746 909.484 22.0506 910.679 24.4399C911.959 26.8293 912.983 29.4319 913.751 32.2479C914.519 35.0639 914.903 38.0933 914.903 41.3359C914.903 43.2133 914.689 44.9199 914.263 46.4559C913.921 47.9066 913.409 49.3573 912.727 50.8079V50.6799C909.74 56.5679 904.961 62.0293 898.391 67.0639C891.905 72.0133 884.14 76.7066 875.095 81.1439C876.801 83.4479 878.636 85.8799 880.599 88.4399C882.647 90.9146 884.695 93.3893 886.743 95.8639C888.876 98.3386 890.967 100.728 893.015 103.032C895.063 105.251 896.983 107.256 898.775 109.048V108.92C900.652 110.712 901.591 112.547 901.591 114.424C901.591 115.704 901.121 116.899 900.183 118.008C899.329 119.032 898.263 119.928 896.983 120.696C895.788 121.379 894.551 121.976 893.271 122.488C892.076 122.915 891.137 123.171 890.455 123.256L890.583 123.128C889.559 123.384 888.577 123.597 887.639 123.768C886.7 124.024 885.676 124.152 884.567 124.152C882.945 124.152 881.196 123.853 879.319 123.256C877.441 122.659 875.479 121.635 873.431 120.184ZM881.751 33.0159C879.788 33.0159 877.569 33.2719 875.095 33.7839C872.62 34.2106 870.017 35.0213 867.287 36.2159C866.092 39.2026 864.897 42.4026 863.703 45.8159C862.593 49.1439 861.399 52.6853 860.119 56.4399V56.3119C859.948 56.8239 859.777 57.3359 859.607 57.8479C859.436 58.3599 859.265 58.9146 859.095 59.5119C863.447 57.6346 867.372 55.5439 870.871 53.2399C874.455 50.9359 877.441 48.6319 879.831 46.3279C882.305 44.0239 884.183 41.8479 885.463 39.7999C886.828 37.7519 887.511 36.0879 887.511 34.8079V34.6799C887.084 33.5706 885.164 33.0159 881.751 33.0159Z" fill="#4BE920"/>
<path d="M991.099 14.9679C993.232 16.7599 994.939 18.6799 996.219 20.7279C997.499 22.6906 998.48 24.8239 999.163 27.1279C999.845 29.4319 1000.31 31.8639 1000.57 34.4239C1000.83 36.9839 1000.95 39.7146 1000.95 42.6159C1000.95 47.3946 1000.53 52.7706 999.675 58.7439C998.821 64.7173 997.499 70.7759 995.707 76.9199C994 83.0639 991.781 89.0799 989.051 94.9679C986.405 100.771 983.248 105.933 979.579 110.456C975.995 114.979 971.899 118.648 967.291 121.464C962.683 124.195 957.563 125.56 951.931 125.56C950.053 125.56 948.176 125.432 946.299 125.176H946.427C935.077 124.067 926.501 120.44 920.699 114.296C914.981 108.067 912.123 98.7226 912.123 86.2639C912.123 79.8639 912.891 73.2079 914.427 66.2959C915.963 59.3839 918.181 52.5999 921.083 45.9439C924.069 39.2879 927.696 33.0159 931.963 27.1279C936.229 21.2399 941.051 16.1626 946.427 11.8959C948.987 10.0186 951.931 8.52527 955.259 7.41594C958.587 6.3066 961.787 5.75194 964.859 5.75194C967.163 5.75194 969.552 6.00794 972.027 6.51994C974.587 7.03194 977.019 7.75727 979.323 8.69594C981.712 9.54928 983.931 10.5306 985.979 11.6399C988.027 12.7493 989.733 13.8586 991.099 14.9679ZM969.595 30.8399H969.467C968.101 30.8399 966.48 31.8639 964.603 33.9119C962.725 35.9599 960.763 38.6053 958.715 41.8479C956.752 45.0053 954.832 48.5466 952.955 52.4719C951.077 56.3973 949.456 60.1946 948.091 63.8639C946.384 68.4719 945.019 73.2933 943.995 78.3279C942.971 83.2773 942.459 87.7999 942.459 91.8959C942.459 94.8826 942.757 97.3999 943.355 99.4479C943.952 101.411 944.976 102.392 946.427 102.392C947.792 102.392 949.328 101.496 951.035 99.7039C952.827 97.9119 954.661 95.5226 956.539 92.5359C958.416 89.4639 960.251 85.8799 962.043 81.7839C963.835 77.6879 965.413 73.3359 966.779 68.7279C968.229 64.1199 969.381 59.3413 970.235 54.3919C971.088 49.4426 971.515 44.6213 971.515 39.9279C971.515 37.3679 971.344 35.2773 971.003 33.6559C970.747 32.0346 970.277 31.0959 969.595 30.8399Z" fill="#4BE920"/>
<path d="M1041.17 36.4719C1040.49 40.8239 1039.63 45.8586 1038.61 51.5759C1037.58 57.2079 1036.6 63.0533 1035.66 69.1119C1038.22 64.3333 1040.78 59.5119 1043.34 54.6479C1045.9 49.7839 1048.38 45.2186 1050.77 40.9519C1053.16 36.6853 1055.29 32.8453 1057.17 29.4319C1059.13 26.0186 1060.75 23.4159 1062.03 21.6239H1061.9C1063.01 19.9173 1064.12 18.7226 1065.23 18.0399C1066.34 17.2719 1067.79 16.8879 1069.58 16.8879C1070.52 16.8879 1071.68 17.0586 1073.04 17.3999C1074.49 17.7413 1075.69 18.0399 1076.62 18.2959C1077.65 18.5519 1078.59 18.8079 1079.44 19.0639C1080.29 19.3199 1081.1 19.6186 1081.87 19.9599C1082.64 20.3013 1083.49 20.7279 1084.43 21.2399H1084.3C1086.52 22.1786 1087.97 23.1599 1088.66 24.1839C1089.34 25.2079 1089.68 26.6586 1089.68 28.5359C1089.68 28.7066 1089.21 32.0773 1088.27 38.6479C1087.33 45.1333 1086.14 54.5199 1084.69 66.8079C1087.42 61.0906 1090.19 55.3733 1093.01 49.6559C1095.91 43.9386 1098.6 38.6053 1101.07 33.6559C1103.63 28.6213 1105.94 24.1413 1107.98 20.2159C1110.03 16.2906 1111.61 13.2186 1112.72 10.9999C1113.83 9.03727 1114.9 7.67194 1115.92 6.90394C1117.03 6.05061 1118.27 5.62394 1119.63 5.62394C1120.74 5.62394 1122.36 6.00794 1124.5 6.77594C1126.63 7.54394 1128.76 8.65327 1130.9 10.1039C1133.03 11.4693 1134.91 13.1333 1136.53 15.0959C1138.15 16.9733 1138.96 19.0213 1138.96 21.2399C1138.96 23.5439 1138.41 25.8053 1137.3 28.0239C1135.16 31.8639 1132.82 36.2586 1130.26 41.2079C1127.78 46.1573 1125.18 51.4479 1122.45 57.0799C1119.72 62.6266 1116.94 68.3439 1114.13 74.2319C1111.4 80.1199 1108.71 85.9226 1106.06 91.6399C1103.5 97.2719 1101.03 102.648 1098.64 107.768C1096.34 112.888 1094.29 117.453 1092.5 121.464C1090.7 124.963 1087.85 126.712 1083.92 126.712C1083.24 126.712 1082.51 126.669 1081.74 126.584C1081.06 126.499 1080.25 126.328 1079.31 126.072L1079.44 126.2C1077.82 125.859 1076.41 125.517 1075.22 125.176C1074.11 124.835 1073 124.493 1071.89 124.152C1070.86 123.811 1069.8 123.469 1068.69 123.128C1067.66 122.787 1066.47 122.403 1065.1 121.976C1062.37 120.952 1060.5 119.416 1059.47 117.368C1058.45 115.235 1057.85 112.888 1057.68 110.328V106.36C1057.51 103.885 1057.38 101.112 1057.3 98.0399C1057.21 94.8826 1057.17 91.6826 1057.17 88.4399V83.9599C1055.12 87.5439 1053.07 91.1706 1051.02 94.8399C1049.06 98.4239 1047.18 101.88 1045.39 105.208C1043.6 108.536 1041.94 111.651 1040.4 114.552C1038.86 117.368 1037.58 119.757 1036.56 121.72C1035.37 123.683 1034.13 125.048 1032.85 125.816C1031.65 126.584 1030.29 126.968 1028.75 126.968C1027.56 126.968 1026.41 126.84 1025.3 126.584C1022.74 125.987 1020.18 125.389 1017.62 124.792C1015.14 124.195 1012.88 123.427 1010.83 122.488C1008.78 121.549 1007.12 120.312 1005.84 118.776C1004.56 117.155 1003.92 115.021 1003.92 112.376C1003.92 108.365 1004.05 103.757 1004.3 98.5519C1004.65 93.3466 1005.03 87.8426 1005.46 82.0399C1005.97 76.2373 1006.52 70.3066 1007.12 64.2479C1007.8 58.1039 1008.53 52.0879 1009.3 46.1999C1010.06 40.2266 1010.83 34.5093 1011.6 29.0479C1012.45 23.5866 1013.26 18.6373 1014.03 14.1999C1014.54 11.6399 1015.31 9.80527 1016.34 8.69594C1017.36 7.50127 1018.9 6.90394 1020.94 6.90394C1022.05 6.90394 1023.12 7.03194 1024.14 7.28794C1026.7 7.79994 1029.14 8.43994 1031.44 9.20794C1033.83 9.89061 1035.88 10.7866 1037.58 11.8959C1039.38 13.0053 1040.78 14.4133 1041.81 16.1199C1042.92 17.8266 1043.47 19.8746 1043.47 22.2639C1043.47 24.0559 1043.22 25.7626 1042.7 27.3839L1042.83 27.2559C1042.66 28.2799 1042.45 29.6026 1042.19 31.2239C1041.94 32.7599 1041.6 34.5093 1041.17 36.4719Z" fill="#4BE920"/>
<path d="M1183.15 25.7199C1183.24 27.4266 1183.37 29.5173 1183.54 31.9919C1183.79 34.4666 1184.05 37.1973 1184.31 40.1839C1184.56 43.1706 1184.86 46.3706 1185.2 49.7839C1185.54 53.1119 1185.88 56.4826 1186.23 59.8959C1188.44 51.2773 1190.71 42.9573 1193.01 34.9359C1195.4 26.9146 1197.7 19.5333 1199.92 12.7919C1201.29 8.61061 1203.85 6.51994 1207.6 6.51994C1208.03 6.51994 1208.54 6.60528 1209.14 6.77594C1209.74 6.86127 1210.42 6.98927 1211.19 7.15994C1212.47 7.50128 1214.09 8.01328 1216.05 8.69594C1218.01 9.37861 1219.93 10.2746 1221.81 11.3839C1223.69 12.4079 1225.31 13.6453 1226.67 15.0959C1228.04 16.5466 1228.72 18.2533 1228.72 20.2159C1228.72 20.8986 1228.64 21.6239 1228.47 22.3919C1228.38 23.1599 1228.17 23.9706 1227.83 24.8239C1226.55 28.8346 1225.18 33.3146 1223.73 38.2639C1222.28 43.2133 1220.74 48.4186 1219.12 53.8799C1217.59 59.3413 1216.01 64.9306 1214.39 70.6479C1212.85 76.3653 1211.31 82.0399 1209.78 87.6719C1208.33 93.3039 1206.88 98.7653 1205.43 104.056C1204.06 109.261 1202.82 114.125 1201.71 118.648L1201.84 118.52C1200.99 122.616 1198.47 124.664 1194.29 124.664C1191.56 124.664 1188.83 124.195 1186.1 123.256C1183.45 122.317 1180.89 121.379 1178.42 120.44C1175.77 119.16 1173.55 116.941 1171.76 113.784C1170.06 110.627 1168.6 106.872 1167.41 102.52C1166.22 98.0826 1165.15 93.1759 1164.21 87.7999C1163.36 82.4239 1162.5 76.9199 1161.65 71.2879C1160.37 75.8959 1159.09 80.5039 1157.81 85.1119C1156.53 89.6346 1155.29 93.9866 1154.1 98.1679C1152.99 102.349 1151.92 106.317 1150.9 110.072C1149.96 113.827 1149.15 117.155 1148.47 120.056C1147.87 121.763 1147.19 123.043 1146.42 123.896C1145.65 124.749 1144.45 125.176 1142.83 125.176C1142.32 125.176 1141.72 125.091 1141.04 124.92C1140.44 124.835 1139.72 124.707 1138.87 124.536L1137.46 124.152C1135.49 123.555 1133.53 122.915 1131.57 122.232C1129.61 121.549 1127.81 120.568 1126.19 119.288L1126.32 119.416C1124.7 118.392 1123.55 117.283 1122.87 116.088C1122.1 114.893 1121.71 113.357 1121.71 111.48C1121.71 110.115 1121.88 108.579 1122.23 106.872L1122.1 107C1122.52 104.525 1123.25 101.027 1124.27 96.5039C1125.3 91.9813 1126.53 86.9466 1127.99 81.3999C1129.35 75.7679 1130.84 69.8373 1132.47 63.6079C1134.09 57.2933 1135.75 51.0639 1137.46 44.9199C1139.16 38.7759 1140.83 32.9306 1142.45 27.3839C1144.07 21.8373 1145.61 17.0159 1147.06 12.9199C1148.68 8.65328 1151.41 6.51994 1155.25 6.51994C1156.44 6.51994 1157.9 6.73328 1159.6 7.15994C1161.31 7.58661 1163.1 8.14128 1164.98 8.82394C1166.85 9.42127 1168.69 10.1039 1170.48 10.8719C1172.27 11.6399 1173.9 12.4079 1175.35 13.1759H1175.22C1178.12 14.3706 1180.08 15.9066 1181.11 17.7839C1182.22 19.5759 1182.9 22.2213 1183.15 25.7199Z" fill="#4BE920"/>
<path d="M1346.43 30.8399C1341.91 31.5226 1337.21 32.1199 1332.35 32.6319C1327.48 33.1439 1322.45 33.7413 1317.24 34.4239C1316.22 36.8986 1315.24 39.7573 1314.3 42.9999C1313.36 46.1573 1312.3 49.5279 1311.1 53.1119C1312.89 52.9413 1314.68 52.8133 1316.48 52.7279C1318.27 52.5573 1320.06 52.4719 1321.85 52.4719H1323C1325.31 52.4719 1327.19 53.0266 1328.64 54.1359C1330.17 55.2453 1331.37 56.6106 1332.22 58.2319C1333.16 59.8533 1333.88 61.6026 1334.4 63.4799C1334.91 65.3573 1335.34 67.0639 1335.68 68.5999L1335.55 68.4719C1335.8 69.7519 1335.93 70.6906 1335.93 71.2879C1335.93 73.2506 1335.38 74.6586 1334.27 75.5119C1333.24 76.2799 1331.5 76.8773 1329.02 77.3039C1324.5 78.1573 1319.93 79.0106 1315.32 79.8639C1310.8 80.7173 1306.28 81.6559 1301.76 82.6799C1299.54 89.5066 1297.53 96.1199 1295.74 102.52C1293.95 108.92 1292.33 114.68 1290.88 119.8V119.544C1290.54 121.507 1289.72 122.915 1288.44 123.768C1287.16 124.621 1285.63 125.048 1283.84 125.048C1281.36 125.048 1278.72 124.493 1275.9 123.384C1273.17 122.275 1270.78 121.251 1268.73 120.312C1266.68 119.032 1265.32 117.795 1264.64 116.6C1263.87 115.32 1263.48 113.784 1263.48 111.992C1263.48 110.712 1263.61 109.304 1263.87 107.768C1264.21 105.379 1264.98 101.965 1266.17 97.5279C1267.28 93.0053 1268.6 87.9279 1270.14 82.2959C1271.68 76.6639 1273.26 70.6479 1274.88 64.2479C1276.58 57.7626 1278.16 51.4053 1279.61 45.1759C1281.06 38.9466 1282.3 33.0159 1283.32 27.3839C1284.43 21.6666 1285.12 16.7173 1285.37 12.5359C1289.04 11.5119 1293.05 10.6159 1297.4 9.84794C1301.84 8.99461 1306.36 8.26927 1310.97 7.67194C1315.67 7.07461 1320.36 6.56261 1325.05 6.13594C1329.83 5.70927 1334.44 5.41061 1338.88 5.23994H1339.77C1341.99 5.23994 1343.91 5.87994 1345.53 7.15994C1347.24 8.43994 1348.65 10.0613 1349.76 12.0239C1350.95 13.9013 1351.85 15.9493 1352.44 18.1679C1353.04 20.3866 1353.34 22.4346 1353.34 24.3119C1353.34 26.6159 1352.83 28.1946 1351.8 29.0479C1350.87 29.9013 1349.07 30.4986 1346.43 30.8399Z" fill="white"/>
<path d="M1421.97 14.9679C1424.11 16.7599 1425.81 18.6799 1427.09 20.7279C1428.37 22.6906 1429.35 24.8239 1430.04 27.1279C1430.72 29.4319 1431.19 31.8639 1431.45 34.4239C1431.7 36.9839 1431.83 39.7146 1431.83 42.6159C1431.83 47.3946 1431.4 52.7706 1430.55 58.7439C1429.7 64.7173 1428.37 70.7759 1426.58 76.9199C1424.88 83.0639 1422.66 89.0799 1419.93 94.9679C1417.28 100.771 1414.12 105.933 1410.45 110.456C1406.87 114.979 1402.77 118.648 1398.17 121.464C1393.56 124.195 1388.44 125.56 1382.81 125.56C1380.93 125.56 1379.05 125.432 1377.17 125.176H1377.3C1365.95 124.067 1357.38 120.44 1351.57 114.296C1345.86 108.067 1343 98.7226 1343 86.2639C1343 79.8639 1343.77 73.2079 1345.3 66.2959C1346.84 59.3839 1349.06 52.5999 1351.96 45.9439C1354.94 39.2879 1358.57 33.0159 1362.84 27.1279C1367.1 21.2399 1371.93 16.1626 1377.3 11.8959C1379.86 10.0186 1382.81 8.52527 1386.13 7.41594C1389.46 6.3066 1392.66 5.75194 1395.73 5.75194C1398.04 5.75194 1400.43 6.00794 1402.9 6.51994C1405.46 7.03194 1407.89 7.75727 1410.2 8.69594C1412.59 9.54928 1414.81 10.5306 1416.85 11.6399C1418.9 12.7493 1420.61 13.8586 1421.97 14.9679ZM1400.47 30.8399H1400.34C1398.98 30.8399 1397.35 31.8639 1395.48 33.9119C1393.6 35.9599 1391.64 38.6053 1389.59 41.8479C1387.63 45.0053 1385.71 48.5466 1383.83 52.4719C1381.95 56.3973 1380.33 60.1946 1378.97 63.8639C1377.26 68.4719 1375.89 73.2933 1374.87 78.3279C1373.85 83.2773 1373.33 87.7999 1373.33 91.8959C1373.33 94.8826 1373.63 97.3999 1374.23 99.4479C1374.83 101.411 1375.85 102.392 1377.3 102.392C1378.67 102.392 1380.2 101.496 1381.91 99.7039C1383.7 97.9119 1385.54 95.5226 1387.41 92.5359C1389.29 89.4639 1391.13 85.8799 1392.92 81.7839C1394.71 77.6879 1396.29 73.3359 1397.65 68.7279C1399.1 64.1199 1400.26 59.3413 1401.11 54.3919C1401.96 49.4426 1402.39 44.6213 1402.39 39.9279C1402.39 37.3679 1402.22 35.2773 1401.88 33.6559C1401.62 32.0346 1401.15 31.0959 1400.47 30.8399Z" fill="white"/>
<path d="M1477.04 17.1439C1477.72 19.8746 1478.53 22.7759 1479.47 25.8479C1480.41 28.8346 1481.39 31.9493 1482.41 35.1919C1485.48 31.4373 1488.47 27.7253 1491.37 24.0559C1494.27 20.3866 1497 17.1013 1499.56 14.1999C1502.21 11.2986 1504.6 8.95194 1506.73 7.15994C1508.95 5.36794 1510.83 4.47194 1512.36 4.47194C1514.5 4.47194 1516.59 5.19727 1518.64 6.64794C1520.77 8.09861 1522.65 9.84794 1524.27 11.8959C1525.97 13.9439 1527.34 16.0346 1528.36 18.1679C1529.47 20.3013 1530.03 22.0506 1530.03 23.4159C1530.03 24.8666 1529.69 26.2746 1529 27.6399C1528.41 29.0053 1527.55 30.3279 1526.44 31.6079C1522.09 36.7279 1517.1 42.5306 1511.47 49.0159C1505.92 55.5013 1499.95 62.4133 1493.55 69.7519C1496.28 78.5413 1498.92 86.8613 1501.48 94.7119C1504.04 102.563 1506.43 109.688 1508.65 116.088V115.96C1508.82 116.643 1508.99 117.283 1509.16 117.88C1509.42 118.392 1509.55 119.032 1509.55 119.8C1509.55 122.275 1508.31 123.853 1505.84 124.536C1503.45 125.304 1500.33 125.688 1496.49 125.688C1493.93 125.688 1491.46 125.56 1489.07 125.304C1486.76 124.963 1484.93 124.493 1483.56 123.896C1482.2 123.299 1480.88 122.019 1479.6 120.056C1478.4 118.093 1477.08 115.192 1475.63 111.352C1474.26 107.427 1472.38 102.008 1470 95.0959C1467.52 98.0826 1465.17 100.984 1462.96 103.8C1460.74 106.616 1458.56 109.389 1456.43 112.12C1454.98 113.827 1453.61 115.576 1452.33 117.368C1451.05 119.16 1449.77 120.781 1448.49 122.232C1447.3 123.683 1446.02 124.877 1444.65 125.816C1443.37 126.755 1442.05 127.224 1440.68 127.224C1439.75 127.224 1438.34 126.627 1436.46 125.432C1434.58 124.323 1432.7 122.915 1430.83 121.208C1428.86 119.501 1427.2 117.624 1425.84 115.576C1424.39 113.443 1423.66 111.395 1423.66 109.432V109.048C1423.83 107.171 1424.81 104.952 1426.6 102.392V102.52C1428.48 99.8746 1430.61 96.9306 1433 93.6879C1435.39 90.4453 1437.95 87.0319 1440.68 83.4479C1443.41 79.8639 1446.27 76.1946 1449.26 72.4399C1452.33 68.5999 1455.49 64.8026 1458.73 61.0479C1457.28 56.8666 1455.87 52.6853 1454.51 48.5039C1453.23 44.3226 1451.99 40.3546 1450.8 36.5999C1449.69 32.7599 1448.62 29.2186 1447.6 25.9759C1446.66 22.7333 1445.85 19.8746 1445.16 17.3999V17.5279C1444.99 16.7599 1444.86 16.0346 1444.78 15.3519C1444.69 14.6693 1444.65 14.1146 1444.65 13.6879C1444.65 11.2133 1445.42 9.59194 1446.96 8.82394C1448.58 7.97061 1451.31 7.54394 1455.15 7.54394H1458.35C1461.42 7.54394 1463.98 7.7146 1466.03 8.05594C1468.08 8.31194 1469.78 8.82394 1471.15 9.59194C1472.51 10.2746 1473.62 11.2559 1474.48 12.5359C1475.41 13.7306 1476.27 15.2666 1477.04 17.1439Z" fill="white"/>
<path d="M90.7447 24.3119C90.7447 26.0186 90.2753 27.2986 89.3367 28.1519C88.398 28.9199 86.6487 29.3893 84.0887 29.5599C81.102 29.9866 77.9873 30.3279 74.7447 30.5839C71.5873 30.8399 68.2593 31.1386 64.7607 31.4799C62.6273 38.3919 60.4087 45.6879 58.1047 53.3679C55.8007 60.9626 53.4967 68.6426 51.1927 76.4079C48.8887 84.0879 46.67 91.7253 44.5367 99.3199C42.4887 106.915 40.5687 114.125 38.7767 120.952L38.9047 120.824C38.478 122.787 37.7527 124.152 36.7287 124.92C35.7047 125.688 34.4247 126.072 32.8887 126.072C31.694 126.072 30.2007 125.816 28.4087 125.304C26.6167 124.792 24.8247 124.195 23.0327 123.512H23.1607C19.7473 122.317 16.9313 120.952 14.7127 119.416C12.5793 117.795 11.5127 115.363 11.5127 112.12C11.5127 111.096 11.726 109.731 12.1527 108.024V108.152C12.9207 103.885 13.9447 98.7653 15.2247 92.7919C16.59 86.8186 18.0833 80.5893 19.7047 74.1039C21.326 67.5333 23.0327 60.9626 24.8247 54.3919C26.702 47.7359 28.494 41.5919 30.2007 35.9599C27.726 36.3866 25.5927 36.8133 23.8007 37.2399C22.0087 37.6666 20.302 37.8799 18.6807 37.8799C16.8887 37.8799 15.2673 37.3253 13.8167 36.2159C12.4513 35.0213 11.214 33.5706 10.1047 31.8639C9.08066 30.1573 8.14199 28.3653 7.28866 26.4879C6.52066 24.6106 5.88066 22.9039 5.36866 21.3679L4.98466 20.2159V20.3439C4.64332 19.3199 4.47266 18.2533 4.47266 17.1439C4.47266 15.5226 4.89932 14.3706 5.75266 13.6879C6.69132 12.9199 8.01399 12.3653 9.72066 12.0239C14.2433 11.1706 19.3207 10.3599 24.9527 9.59194C30.67 8.82394 36.4727 8.14127 42.3607 7.54394C48.2487 6.94661 54.0087 6.43461 59.6407 6.00794C65.2727 5.58128 70.35 5.28261 74.8727 5.11194C77.6033 5.11194 79.6513 5.45327 81.0167 6.13594C82.382 6.73328 83.5767 7.62928 84.6007 8.82394C85.3687 9.84794 86.094 10.9999 86.7767 12.2799C87.5447 13.5599 88.2273 14.9253 88.8247 16.3759C89.422 17.7413 89.8913 19.1066 90.2327 20.4719C90.574 21.8373 90.7447 23.1173 90.7447 24.3119Z" stroke="black" stroke-width="7"/>
<path d="M177.522 23.5439C175.388 29.6879 173.042 36.7279 170.482 44.6639C167.922 52.5999 165.319 60.8773 162.674 69.4959C160.114 78.1146 157.554 86.8186 154.994 95.6079C152.519 104.397 150.258 112.675 148.21 120.44L148.338 120.056C148.167 122.189 147.57 123.64 146.546 124.408C145.522 125.261 144.114 125.688 142.322 125.688C141.127 125.688 139.804 125.475 138.354 125.048C136.988 124.707 135.495 124.323 133.874 123.896C132.082 123.043 130.418 122.317 128.882 121.72C127.346 121.037 125.98 120.312 124.786 119.544C123.591 118.776 122.652 117.837 121.97 116.728C121.287 115.533 120.946 113.997 120.946 112.12C120.946 111.011 121.159 109.688 121.586 108.152V108.28C122.183 105.293 122.908 101.88 123.762 98.0399C124.7 94.1146 125.724 89.8479 126.834 85.2399C124.103 85.6666 121.415 86.0933 118.77 86.5199C116.21 86.8613 113.65 87.2453 111.09 87.6719C109.554 92.6213 108.188 97.3146 106.994 101.752C105.799 106.189 104.732 110.413 103.794 114.424C103.282 116.301 102.855 117.965 102.514 119.416C102.172 120.781 101.746 121.933 101.234 122.872C100.807 123.811 100.21 124.493 99.4417 124.92C98.6737 125.432 97.6497 125.688 96.3697 125.688C95.8577 125.688 95.2603 125.645 94.5777 125.56C93.9803 125.475 93.255 125.304 92.4017 125.048C90.183 124.109 88.007 123.299 85.8737 122.616C83.8257 121.848 81.991 121.037 80.3697 120.184C78.663 119.245 77.3403 118.179 76.4017 116.984C75.3777 115.704 74.8657 114.083 74.8657 112.12C74.8657 110.755 75.1643 109.219 75.7617 107.512C77.9803 100.856 80.1563 93.4319 82.2897 85.2399C84.5083 76.9626 86.6843 68.5573 88.8177 60.0239C90.951 51.4053 92.999 42.9573 94.9617 34.6799C96.9243 26.4026 98.8017 18.8506 100.594 12.0239C101.362 9.97594 102.215 8.52528 103.154 7.67194C104.178 6.81861 105.543 6.39194 107.25 6.39194C108.018 6.39194 109.212 6.64794 110.834 7.15994C112.54 7.67194 114.332 8.31194 116.21 9.07994C118.087 9.84794 119.922 10.7013 121.714 11.6399C123.591 12.5786 125.17 13.5173 126.45 14.4559L126.322 14.3279C128.114 15.5226 129.394 16.6746 130.162 17.7839C130.93 18.8079 131.314 20.0453 131.314 21.4959C131.314 22.7759 131.058 24.1839 130.546 25.7199C129.095 29.9013 127.431 34.8506 125.554 40.5679C123.676 46.1999 121.714 52.3439 119.666 58.9999C121.714 58.8293 123.762 58.6586 125.81 58.4879C127.858 58.3173 129.82 58.1466 131.698 57.9759H131.57L134.002 57.8479C136.476 49.3999 138.866 41.0799 141.17 32.8879C143.559 24.6106 145.863 17.2719 148.082 10.8719C148.764 8.65327 149.66 7.07461 150.77 6.13594C151.879 5.19728 153.287 4.72794 154.994 4.72794C156.359 4.72794 157.895 5.02661 159.602 5.62394H159.474C161.266 6.13594 163.271 6.86127 165.49 7.79994C167.708 8.73861 169.756 9.84794 171.634 11.1279C173.511 12.4079 175.09 13.7733 176.37 15.2239C177.65 16.6746 178.29 18.0826 178.29 19.4479C178.29 20.6426 178.034 22.0079 177.522 23.5439Z" stroke="black" stroke-width="7"/>
<path d="M186.796 15.3519L188.46 13.5599C191.873 12.7066 195.585 11.8533 199.596 10.9999C203.692 10.0613 207.916 9.20794 212.268 8.43994C216.705 7.67194 221.228 6.98927 225.836 6.39194C230.444 5.79461 235.009 5.41061 239.532 5.23994H240.172C242.902 5.23994 244.993 5.79461 246.444 6.90394C247.98 8.01327 249.132 9.67727 249.9 11.8959V11.7679C250.753 13.7306 251.35 15.3519 251.692 16.6319C252.033 17.9119 252.332 19.2773 252.588 20.7279L252.46 20.5999C252.801 21.7093 252.972 22.8613 252.972 24.0559C252.972 26.3599 252.46 27.9813 251.436 28.9199C250.412 29.8586 248.492 30.4986 245.676 30.8399C241.238 31.2666 236.673 31.7786 231.98 32.3759C227.286 32.8879 222.294 33.5279 217.004 34.2959C215.98 37.1119 214.913 40.1839 213.804 43.5119C212.694 46.7546 211.542 49.9973 210.348 53.2399C214.017 52.8133 217.729 52.5573 221.484 52.4719H222.38C224.854 52.4719 226.817 52.8559 228.268 53.6239C229.718 54.3919 230.913 55.8426 231.852 57.9759V57.8479C232.876 59.8106 233.601 61.6879 234.028 63.4799C234.454 65.1866 234.881 66.9359 235.308 68.7279L235.18 68.5999C235.521 69.8799 235.692 70.9039 235.692 71.6719C235.692 73.1226 235.18 74.3173 234.156 75.2559C233.217 76.1093 231.937 76.7919 230.316 77.3039C228.78 77.8159 226.945 78.2426 224.812 78.5839C222.764 78.8399 220.63 79.1386 218.412 79.4799H218.54C215.297 80.1626 212.14 80.8026 209.068 81.3999C205.996 81.9119 202.966 82.5093 199.98 83.1919C199.297 84.8986 198.614 86.7759 197.932 88.8239C197.249 90.7866 196.822 92.5359 196.652 94.0719C199.894 93.4746 203.222 92.9199 206.636 92.4079C210.134 91.8959 213.804 91.6399 217.644 91.6399C219.948 91.6399 221.782 92.1093 223.148 93.0479C224.598 93.9013 225.708 95.3519 226.476 97.3999V97.2719C227.5 99.3199 228.396 101.581 229.164 104.056C230.017 106.531 230.444 108.877 230.444 111.096C230.444 113.059 229.974 114.424 229.036 115.192C228.097 115.96 226.39 116.6 223.916 117.112C218.454 118.307 212.822 119.544 207.02 120.824C201.302 122.019 195.756 123.213 190.38 124.408L190.508 124.28C188.118 124.877 186.113 125.176 184.492 125.176C182.614 125.176 180.95 124.92 179.5 124.408C178.134 123.896 176.854 123.171 175.66 122.232C174.465 121.208 173.228 120.056 171.948 118.776C170.753 117.411 169.43 115.875 167.98 114.168V114.296C166.785 113.016 165.846 111.608 165.164 110.072C164.481 108.536 164.14 106.659 164.14 104.44C164.14 103.16 164.268 101.88 164.524 100.6L186.796 15.3519Z" stroke="black" stroke-width="7"/>
<path d="M365.711 109.176C366.137 109.859 366.649 110.627 367.247 111.48C367.844 112.248 368.399 113.059 368.911 113.912C369.423 114.68 369.849 115.491 370.191 116.344C370.617 117.112 370.831 117.795 370.831 118.392C370.831 120.781 369.423 122.659 366.607 124.024L366.735 123.896C364.601 125.176 362.468 126.2 360.335 126.968C358.201 127.821 355.94 128.248 353.551 128.248C350.052 128.248 347.065 126.968 344.591 124.408C344.249 123.896 343.951 123.597 343.695 123.512C341.903 124.195 339.983 124.664 337.935 124.92C335.972 125.261 333.967 125.432 331.919 125.432C318.948 125.432 309.135 122.189 302.479 115.704C295.908 109.133 292.623 99.3199 292.623 86.2639C292.623 79.8639 293.391 73.2079 294.927 66.2959C296.463 59.2986 298.681 52.4719 301.583 45.8159C304.569 39.1599 308.196 32.8879 312.463 26.9999C316.729 21.1119 321.551 16.0346 326.927 11.7679C329.487 9.89061 332.431 8.39728 335.759 7.28794C339.087 6.17861 342.287 5.62394 345.359 5.62394C346.041 5.62394 346.681 5.66661 347.279 5.75194C347.876 5.75194 348.431 5.79461 348.943 5.87994C355.769 6.98927 361.273 8.69594 365.455 10.9999C369.721 13.2186 373.007 15.9493 375.311 19.1919C377.7 22.3493 379.279 25.9333 380.047 29.9439C380.9 33.9546 381.327 38.2639 381.327 42.8719C381.327 47.7359 380.943 52.8986 380.175 58.3599C379.492 63.8213 378.425 69.3253 376.975 74.8719C375.524 80.3333 373.647 85.7093 371.343 90.9999C369.124 96.2053 366.479 101.069 363.407 105.592C363.833 106.104 364.217 106.659 364.559 107.256C364.9 107.853 365.284 108.493 365.711 109.176ZM326.927 102.392C327.097 102.392 327.183 102.392 327.183 102.392L326.927 101.624C326.244 100.515 325.689 99.6186 325.263 98.9359C324.921 98.2533 324.751 97.3999 324.751 96.3759C324.751 95.0106 325.177 93.8159 326.031 92.7919C326.884 91.7679 327.993 90.8719 329.359 90.1039C330.809 89.3359 332.473 88.6959 334.351 88.1839C336.228 87.5866 338.148 87.0746 340.111 86.6479C341.732 83.4906 343.225 79.9493 344.591 76.0239C346.041 72.0986 347.321 68.0879 348.431 63.9919C349.54 59.8106 350.393 55.6293 350.991 51.4479C351.673 47.1813 352.015 43.1706 352.015 39.4159C352.015 37.3679 351.844 35.4053 351.503 33.5279C351.247 31.6506 350.82 30.7119 350.223 30.7119C349.028 30.7119 347.663 31.4373 346.127 32.8879C344.591 34.2533 342.969 36.1306 341.263 38.5199C339.641 40.9093 338.02 43.6826 336.399 46.8399C334.777 49.9119 333.199 53.1546 331.663 56.5679C330.212 59.9813 328.889 63.4373 327.695 66.9359C326.5 70.3493 325.561 73.5919 324.879 76.6639L325.007 76.5359C323.727 82.3386 323.087 87.4586 323.087 91.8959C323.087 94.6266 323.3 96.9306 323.727 98.8079C324.239 100.6 325.049 101.752 326.159 102.264L326.031 102.136C326.543 102.307 326.841 102.392 326.927 102.392Z" stroke="black" stroke-width="7"/>
<path d="M383.659 106.488C382.037 102.221 381.227 97.1013 381.227 91.1279C381.227 85.6666 381.824 79.6933 383.019 73.2079C384.299 66.6373 385.92 59.9386 387.883 53.1119C389.931 46.2853 392.149 39.5013 394.539 32.7599C397.013 25.9333 399.488 19.4906 401.963 13.4319C402.816 11.3839 403.755 9.93327 404.779 9.07994C405.888 8.14128 407.296 7.67194 409.003 7.67194C411.051 7.67194 413.312 8.14128 415.787 9.07994C418.347 10.0186 420.736 11.2986 422.955 12.9199C425.173 14.4559 427.051 16.2479 428.587 18.2959C430.123 20.3439 430.891 22.4773 430.891 24.6959C430.891 26.3173 430.507 28.0666 429.739 29.9439L429.867 29.8159C427.904 34.6799 425.813 40.1413 423.595 46.1999C421.461 52.1733 419.413 58.2319 417.451 64.3759C415.573 70.4346 413.995 76.2373 412.715 81.7839C411.52 87.2453 410.923 91.8533 410.923 95.6079C410.923 97.5706 411.093 99.1493 411.435 100.344C411.776 101.539 412.373 102.136 413.227 102.136C415.104 102.136 417.067 100.6 419.115 97.5279C421.248 94.3706 423.339 90.2319 425.387 85.1119C427.52 79.9919 429.611 74.2319 431.659 67.8319C433.792 61.3466 435.797 54.7759 437.675 48.1199C439.552 41.4639 441.259 35.0213 442.795 28.7919C444.416 22.5626 445.781 17.1013 446.891 12.4079L446.763 12.6639C447.189 10.2746 448.043 8.61061 449.323 7.67194C450.688 6.73327 452.309 6.26394 454.187 6.26394C455.467 6.26394 456.832 6.51994 458.283 7.03194C459.819 7.45861 461.355 8.01328 462.891 8.69594C464.512 9.37861 466.091 10.1466 467.627 10.9999C469.248 11.8533 470.741 12.6639 472.107 13.4319C473.984 14.6266 475.264 15.7786 475.947 16.8879C476.629 17.9119 476.971 19.1493 476.971 20.5999C476.971 21.1973 476.928 21.8373 476.843 22.5199C476.757 23.1173 476.587 23.7999 476.331 24.5679C473.429 36.6853 470.485 47.9919 467.499 58.4879C464.597 68.9839 461.483 78.4133 458.155 86.7759C454.912 95.0533 451.371 102.136 447.531 108.024C443.691 113.912 439.467 118.307 434.859 121.208C432.128 122.659 429.355 123.725 426.539 124.408C423.808 125.091 420.821 125.432 417.579 125.432C409.131 125.432 402.048 123.981 396.331 121.08C390.613 118.093 386.389 113.229 383.659 106.488Z" stroke="black" stroke-width="7"/>
<path d="M512.244 14.4559L512.116 14.3279C513.822 15.5226 515.017 16.6746 515.7 17.7839C516.468 18.8079 516.852 20.0453 516.852 21.4959C516.852 22.7759 516.596 24.2266 516.084 25.8479C514.804 29.5173 513.396 33.8266 511.86 38.7759C510.324 43.6399 508.702 48.8879 506.996 54.5199C505.374 60.0666 503.71 65.8266 502.004 71.7999C500.382 77.7733 498.761 83.6613 497.14 89.4639C495.604 95.1813 494.11 100.728 492.66 106.104C491.294 111.395 490.057 116.173 488.948 120.44C488.35 122.317 487.668 123.64 486.9 124.408C486.217 125.261 485.022 125.688 483.316 125.688C482.889 125.688 482.377 125.645 481.78 125.56C481.182 125.475 480.5 125.304 479.732 125.048C477.684 124.365 475.678 123.683 473.716 123C471.753 122.317 469.961 121.507 468.34 120.568C466.718 119.544 465.438 118.349 464.5 116.984C463.476 115.619 462.964 113.955 462.964 111.992C462.964 111.139 463.006 110.456 463.092 109.944C463.177 109.347 463.305 108.664 463.476 107.896C463.988 104.568 464.756 100.429 465.78 95.4799C466.804 90.4453 467.998 85.0266 469.364 79.2239C470.729 73.4213 472.18 67.4053 473.716 61.1759C475.337 54.8613 476.916 48.7599 478.452 42.8719C479.988 36.8986 481.481 31.3093 482.932 26.1039C484.382 20.8986 485.705 16.4613 486.9 12.7919C487.753 10.5733 488.692 9.03728 489.716 8.18394C490.74 7.24527 492.105 6.77594 493.812 6.77594C494.921 6.77594 496.244 7.03194 497.78 7.54394C499.401 7.97061 501.065 8.56794 502.772 9.33594C504.564 10.0186 506.27 10.8293 507.892 11.7679C509.513 12.6213 510.964 13.5173 512.244 14.4559Z" stroke="black" stroke-width="7"/>
<path d="M574.927 87.7999C577.145 88.4826 578.724 89.4639 579.663 90.7439C580.687 91.9386 581.199 93.3893 581.199 95.0959C581.199 96.2906 580.943 97.5706 580.431 98.9359C579.919 100.216 579.321 101.581 578.639 103.032C575.14 110.2 570.447 116.003 564.559 120.44C558.671 124.877 551.631 127.096 543.439 127.096C542.756 127.096 542.159 127.096 541.647 127.096C541.135 127.096 540.665 127.053 540.239 126.968H540.367C536.527 126.541 533.071 125.816 529.999 124.792C526.927 123.768 524.153 122.787 521.679 121.848H521.807C520.527 121.507 519.204 120.909 517.839 120.056C516.473 119.117 515.151 118.008 513.871 116.728C512.676 115.448 511.567 114.04 510.543 112.504C509.604 110.968 508.879 109.432 508.367 107.896V108.152C507.343 105.677 506.617 102.947 506.191 99.9599C505.679 96.8879 505.423 93.6879 505.423 90.3599C505.423 85.1546 506.063 79.4373 507.343 73.2079C508.623 66.8933 510.457 60.5359 512.847 54.1359C515.236 47.7359 518.095 41.5493 521.423 35.5759C524.751 29.6026 528.42 24.3119 532.431 19.7039C536.527 15.0106 540.921 11.2559 545.615 8.43994C550.308 5.62394 555.215 4.21594 560.335 4.21594C560.761 4.21594 561.188 4.21594 561.615 4.21594C562.127 4.21594 562.596 4.25861 563.023 4.34394H562.895C565.028 4.59994 567.247 4.98394 569.551 5.49594C571.855 6.00794 574.073 6.64794 576.207 7.41594C578.34 8.18394 580.345 9.07994 582.223 10.1039C584.185 11.0426 585.849 12.0666 587.215 13.1759C590.713 15.9066 592.975 18.7226 593.999 21.6239C595.023 24.5253 595.535 27.7253 595.535 31.2239C595.535 33.1013 595.449 35.1493 595.279 37.3679C595.108 39.5013 594.852 41.6346 594.511 43.7679C594.169 45.9013 593.743 47.9919 593.231 50.0399C592.804 52.0026 592.292 53.7519 591.695 55.2879C591.524 55.4586 591.396 55.6293 591.311 55.7999C590.799 57.2506 590.159 58.4026 589.391 59.2559C588.708 60.0239 587.257 60.4079 585.039 60.4079C584.612 60.4079 584.143 60.4079 583.631 60.4079C583.119 60.4079 582.564 60.3226 581.967 60.1519C579.065 59.5546 576.633 58.7866 574.671 57.8479C572.708 56.8239 571.087 55.6293 569.807 54.2639C568.527 52.8133 567.545 51.1493 566.863 49.2719C566.18 47.3946 565.711 45.2613 565.455 42.8719C565.455 41.2506 565.497 39.6293 565.583 38.0079C565.753 36.3013 565.839 34.8079 565.839 33.5279C565.839 32.5893 565.753 31.7359 565.583 30.9679C565.412 30.1146 565.113 29.5173 564.687 29.1759C563.407 29.2613 561.743 30.5413 559.695 33.0159C557.647 35.4053 555.513 38.3919 553.295 41.9759C551.161 45.5599 549.071 49.4853 547.023 53.7519C544.975 57.9333 543.268 61.9013 541.903 65.6559C540.196 70.5199 538.873 75.4266 537.935 80.3759C536.996 85.3253 536.527 89.6773 536.527 93.4319C536.527 95.9066 536.74 97.9973 537.167 99.7039C537.593 101.325 538.319 102.349 539.343 102.776H539.855C542.5 102.776 546.767 99.5759 552.655 93.1759C556.921 88.7386 561.828 86.5199 567.375 86.5199C568.569 86.5199 569.764 86.6479 570.959 86.9039C572.239 87.0746 573.561 87.3733 574.927 87.7999Z" stroke="black" stroke-width="7"/>
<path d="M685.447 32.2479C683.484 35.3199 680.924 38.7759 677.767 42.6159C674.695 46.3706 671.239 50.2959 667.399 54.3919C663.644 58.4026 659.719 62.4559 655.623 66.5519C651.612 70.6479 647.687 74.5306 643.847 78.1999C645.809 82.1253 647.985 86.0933 650.375 90.1039C652.764 94.0293 654.983 97.6986 657.031 101.112C659.079 104.525 660.785 107.427 662.151 109.816C663.516 112.205 664.199 113.741 664.199 114.424C664.199 115.789 663.772 116.899 662.919 117.752C662.151 118.52 660.956 119.373 659.335 120.312L659.463 120.184C657.329 121.293 654.855 122.232 652.039 123C649.308 123.683 647.004 124.024 645.127 124.024C643.164 124.024 641.244 123.469 639.367 122.36C637.489 121.251 635.527 119.501 633.479 117.112C631.431 114.723 629.212 111.651 626.823 107.896C624.433 104.141 621.703 99.6186 618.631 94.3279C617.265 99.2773 615.985 103.928 614.791 108.28C613.596 112.547 612.487 116.557 611.463 120.312L611.591 119.928C611.42 122.147 610.823 123.683 609.799 124.536C608.775 125.475 607.409 125.944 605.703 125.944C604.593 125.944 603.356 125.731 601.991 125.304C600.711 124.963 599.303 124.536 597.767 124.024C595.548 123.256 593.585 122.531 591.879 121.848C590.257 121.165 588.892 120.355 587.783 119.416C586.588 118.477 585.735 117.368 585.223 116.088C584.625 114.808 584.327 113.272 584.327 111.48C584.327 110.285 584.455 109.048 584.711 107.768V107.896C585.223 104.568 586.033 100.387 587.143 95.3519C588.252 90.2319 589.575 84.6853 591.111 78.7119C592.561 72.7386 594.097 66.5519 595.719 60.1519C597.425 53.6666 599.132 47.3946 600.839 41.3359C602.545 35.2773 604.167 29.6026 605.703 24.3119C607.324 19.0213 608.732 14.5413 609.927 10.8719C610.78 8.82394 611.761 7.37328 612.871 6.51994C614.065 5.58127 615.516 5.11194 617.223 5.11194C617.82 5.11194 618.417 5.15461 619.015 5.23994C619.697 5.32528 620.465 5.49594 621.319 5.75194H621.191C623.324 6.34927 625.585 7.15994 627.975 8.18394C630.364 9.12261 632.54 10.2319 634.503 11.5119C636.465 12.7919 638.087 14.1573 639.367 15.6079C640.647 17.0586 641.287 18.4666 641.287 19.8319C641.287 20.4293 641.201 21.0693 641.031 21.7519C640.86 22.4346 640.561 23.2453 640.135 24.1839L640.263 24.0559C639.068 27.0426 637.873 30.3706 636.679 34.0399C635.484 37.7093 634.204 41.7199 632.839 46.0719L634.375 44.6639C637.703 41.2506 641.031 37.8373 644.359 34.4239C647.687 30.9253 650.887 27.5973 653.959 24.4399C657.031 21.1973 659.847 18.2106 662.407 15.4799C664.967 12.6639 667.1 10.2319 668.807 8.18394L668.679 8.31194C670.556 5.92261 672.433 4.72794 674.311 4.72794C675.505 4.72794 676.913 5.28261 678.535 6.39194C680.156 7.50127 681.692 8.90927 683.143 10.6159C684.679 12.3226 685.959 14.2853 686.983 16.5039C688.092 18.7226 688.647 20.8986 688.647 23.0319C688.647 25.6773 687.58 28.7493 685.447 32.2479Z" stroke="black" stroke-width="7"/>
<path d="M810.57 59.3839C808.948 60.6639 807.284 61.9439 805.578 63.2239C803.956 64.5039 802.164 65.7839 800.202 67.0639C802.847 69.2826 804.98 72.1839 806.602 75.7679C808.223 79.2666 809.034 82.7226 809.034 86.1359C809.034 90.2319 808.138 93.7733 806.346 96.7599C804.639 99.7466 802.079 102.691 798.666 105.592H798.794C796.404 107.896 793.546 110.072 790.218 112.12C786.975 114.168 783.519 116.045 779.85 117.752C776.266 119.459 772.639 120.995 768.97 122.36C765.3 123.725 761.844 124.877 758.602 125.816H758.73C755.658 126.84 753.098 127.352 751.05 127.352C749.514 127.352 748.106 127.096 746.826 126.584C745.546 126.072 744.138 125.261 742.602 124.152C740.127 122.957 737.652 121.507 735.178 119.8C732.788 118.008 730.612 115.661 728.65 112.76L728.778 112.888C727.583 111.267 726.644 109.859 725.962 108.664C725.279 107.384 724.938 105.763 724.938 103.8C724.938 102.947 725.023 102.136 725.194 101.368C725.279 100.515 725.407 99.6186 725.578 98.6799C726.602 92.7919 727.924 86.4346 729.546 79.6079C731.252 72.6959 732.959 65.6559 734.666 58.4879C736.372 51.2346 737.994 43.9813 739.53 36.7279C741.151 29.4746 742.431 22.5626 743.37 15.9919C746.442 14.4559 749.855 13.0053 753.61 11.6399C757.45 10.2746 761.375 9.07994 765.386 8.05594C769.396 7.03194 773.45 6.22128 777.546 5.62394C781.727 5.02661 785.695 4.72794 789.45 4.72794C794.314 4.72794 798.836 5.28261 803.018 6.39194C807.199 7.50127 810.442 9.29327 812.746 11.7679C814.111 13.3039 815.434 14.9679 816.714 16.7599C817.994 18.4666 819.146 20.3439 820.17 22.3919C821.194 24.3546 822.004 26.4879 822.602 28.7919C823.199 31.0106 823.498 33.3573 823.498 35.8319C823.498 40.4399 822.218 44.7493 819.658 48.7599C817.183 52.7706 814.154 56.3119 810.57 59.3839ZM769.354 50.8079C768.927 51.8319 768.586 52.7706 768.33 53.6239C772.426 52.0026 776.138 50.2106 779.466 48.2479C782.794 46.1999 785.61 44.1946 787.914 42.2319C790.303 40.2693 792.095 38.4346 793.29 36.7279C794.57 35.0213 795.21 33.6133 795.21 32.5039C795.21 31.8213 793.759 31.4799 790.858 31.4799C788.81 31.4799 786.378 31.8213 783.562 32.5039C780.746 33.1866 777.674 34.2533 774.346 35.7039C773.492 38.0079 772.639 40.4399 771.786 42.9999C771.018 45.4746 770.207 48.0773 769.354 50.8079ZM771.402 79.2239C768.159 79.2239 764.191 79.9919 759.498 81.5279C758.644 84.5146 757.791 87.3306 756.938 89.9759C756.17 92.6213 755.359 95.3093 754.506 98.0399C758.09 96.9306 761.332 95.6933 764.234 94.3279C767.22 92.8773 769.738 91.4266 771.786 89.9759C773.919 88.5253 775.583 87.0746 776.778 85.6239C777.972 84.1733 778.57 82.8079 778.57 81.5279C778.399 80.8453 777.716 80.2906 776.522 79.8639C775.327 79.4373 773.62 79.2239 771.402 79.2239Z" stroke="black" stroke-width="7"/>
<path d="M873.431 120.184C871.724 118.733 869.804 116.984 867.671 114.936C865.537 112.888 863.319 110.669 861.015 108.28C858.796 105.805 856.577 103.245 854.359 100.6C852.14 97.9546 850.049 95.2666 848.087 92.5359C846.636 97.3999 845.228 102.093 843.863 106.616C842.497 111.139 841.175 115.704 839.895 120.312C839.383 122.019 838.657 123.299 837.719 124.152C836.865 125.005 835.585 125.432 833.879 125.432C832.855 125.432 831.788 125.261 830.679 124.92C828.631 124.323 826.668 123.768 824.791 123.256C822.913 122.744 821.249 122.104 819.799 121.336C818.348 120.483 817.196 119.373 816.343 118.008C815.489 116.643 815.063 114.808 815.063 112.504C815.063 111.309 815.191 109.987 815.447 108.536C816.044 105.805 816.94 101.752 818.135 96.3759C819.329 90.9146 820.652 84.9413 822.103 78.4559C823.639 71.8853 825.26 65.1013 826.967 58.1039C828.759 51.1066 830.551 44.6639 832.343 38.7759C834.22 32.8879 836.097 27.8959 837.975 23.7999C839.852 19.7039 841.644 17.2719 843.351 16.5039C846.508 15.0533 849.793 13.6453 853.207 12.2799C856.62 10.8293 860.033 9.59194 863.447 8.56794C866.945 7.45861 870.359 6.56261 873.687 5.87994C877.1 5.19728 880.343 4.85594 883.415 4.85594C886.999 4.85594 890.412 5.41061 893.655 6.51994C896.983 7.62928 899.841 9.54928 902.231 12.2799C903.681 13.9866 905.132 15.8639 906.583 17.9119C908.119 19.8746 909.484 22.0506 910.679 24.4399C911.959 26.8293 912.983 29.4319 913.751 32.2479C914.519 35.0639 914.903 38.0933 914.903 41.3359C914.903 43.2133 914.689 44.9199 914.263 46.4559C913.921 47.9066 913.409 49.3573 912.727 50.8079V50.6799C909.74 56.5679 904.961 62.0293 898.391 67.0639C891.905 72.0133 884.14 76.7066 875.095 81.1439C876.801 83.4479 878.636 85.8799 880.599 88.4399C882.647 90.9146 884.695 93.3893 886.743 95.8639C888.876 98.3386 890.967 100.728 893.015 103.032C895.063 105.251 896.983 107.256 898.775 109.048V108.92C900.652 110.712 901.591 112.547 901.591 114.424C901.591 115.704 901.121 116.899 900.183 118.008C899.329 119.032 898.263 119.928 896.983 120.696C895.788 121.379 894.551 121.976 893.271 122.488C892.076 122.915 891.137 123.171 890.455 123.256L890.583 123.128C889.559 123.384 888.577 123.597 887.639 123.768C886.7 124.024 885.676 124.152 884.567 124.152C882.945 124.152 881.196 123.853 879.319 123.256C877.441 122.659 875.479 121.635 873.431 120.184ZM881.751 33.0159C879.788 33.0159 877.569 33.2719 875.095 33.7839C872.62 34.2106 870.017 35.0213 867.287 36.2159C866.092 39.2026 864.897 42.4026 863.703 45.8159C862.593 49.1439 861.399 52.6853 860.119 56.4399V56.3119C859.948 56.8239 859.777 57.3359 859.607 57.8479C859.436 58.3599 859.265 58.9146 859.095 59.5119C863.447 57.6346 867.372 55.5439 870.871 53.2399C874.455 50.9359 877.441 48.6319 879.831 46.3279C882.305 44.0239 884.183 41.8479 885.463 39.7999C886.828 37.7519 887.511 36.0879 887.511 34.8079V34.6799C887.084 33.5706 885.164 33.0159 881.751 33.0159Z" stroke="black" stroke-width="7"/>
<path d="M991.099 14.9679C993.232 16.7599 994.939 18.6799 996.219 20.7279C997.499 22.6906 998.48 24.8239 999.163 27.1279C999.845 29.4319 1000.31 31.8639 1000.57 34.4239C1000.83 36.9839 1000.95 39.7146 1000.95 42.6159C1000.95 47.3946 1000.53 52.7706 999.675 58.7439C998.821 64.7173 997.499 70.7759 995.707 76.9199C994 83.0639 991.781 89.0799 989.051 94.9679C986.405 100.771 983.248 105.933 979.579 110.456C975.995 114.979 971.899 118.648 967.291 121.464C962.683 124.195 957.563 125.56 951.931 125.56C950.053 125.56 948.176 125.432 946.299 125.176H946.427C935.077 124.067 926.501 120.44 920.699 114.296C914.981 108.067 912.123 98.7226 912.123 86.2639C912.123 79.8639 912.891 73.2079 914.427 66.2959C915.963 59.3839 918.181 52.5999 921.083 45.9439C924.069 39.2879 927.696 33.0159 931.963 27.1279C936.229 21.2399 941.051 16.1626 946.427 11.8959C948.987 10.0186 951.931 8.52527 955.259 7.41594C958.587 6.3066 961.787 5.75194 964.859 5.75194C967.163 5.75194 969.552 6.00794 972.027 6.51994C974.587 7.03194 977.019 7.75727 979.323 8.69594C981.712 9.54928 983.931 10.5306 985.979 11.6399C988.027 12.7493 989.733 13.8586 991.099 14.9679ZM969.595 30.8399H969.467C968.101 30.8399 966.48 31.8639 964.603 33.9119C962.725 35.9599 960.763 38.6053 958.715 41.8479C956.752 45.0053 954.832 48.5466 952.955 52.4719C951.077 56.3973 949.456 60.1946 948.091 63.8639C946.384 68.4719 945.019 73.2933 943.995 78.3279C942.971 83.2773 942.459 87.7999 942.459 91.8959C942.459 94.8826 942.757 97.3999 943.355 99.4479C943.952 101.411 944.976 102.392 946.427 102.392C947.792 102.392 949.328 101.496 951.035 99.7039C952.827 97.9119 954.661 95.5226 956.539 92.5359C958.416 89.4639 960.251 85.8799 962.043 81.7839C963.835 77.6879 965.413 73.3359 966.779 68.7279C968.229 64.1199 969.381 59.3413 970.235 54.3919C971.088 49.4426 971.515 44.6213 971.515 39.9279C971.515 37.3679 971.344 35.2773 971.003 33.6559C970.747 32.0346 970.277 31.0959 969.595 30.8399Z" stroke="black" stroke-width="7"/>
<path d="M1041.17 36.4719C1040.49 40.8239 1039.63 45.8586 1038.61 51.5759C1037.58 57.2079 1036.6 63.0533 1035.66 69.1119C1038.22 64.3333 1040.78 59.5119 1043.34 54.6479C1045.9 49.7839 1048.38 45.2186 1050.77 40.9519C1053.16 36.6853 1055.29 32.8453 1057.17 29.4319C1059.13 26.0186 1060.75 23.4159 1062.03 21.6239H1061.9C1063.01 19.9173 1064.12 18.7226 1065.23 18.0399C1066.34 17.2719 1067.79 16.8879 1069.58 16.8879C1070.52 16.8879 1071.68 17.0586 1073.04 17.3999C1074.49 17.7413 1075.69 18.0399 1076.62 18.2959C1077.65 18.5519 1078.59 18.8079 1079.44 19.0639C1080.29 19.3199 1081.1 19.6186 1081.87 19.9599C1082.64 20.3013 1083.49 20.7279 1084.43 21.2399H1084.3C1086.52 22.1786 1087.97 23.1599 1088.66 24.1839C1089.34 25.2079 1089.68 26.6586 1089.68 28.5359C1089.68 28.7066 1089.21 32.0773 1088.27 38.6479C1087.33 45.1333 1086.14 54.5199 1084.69 66.8079C1087.42 61.0906 1090.19 55.3733 1093.01 49.6559C1095.91 43.9386 1098.6 38.6053 1101.07 33.6559C1103.63 28.6213 1105.94 24.1413 1107.98 20.2159C1110.03 16.2906 1111.61 13.2186 1112.72 10.9999C1113.83 9.03727 1114.9 7.67194 1115.92 6.90394C1117.03 6.05061 1118.27 5.62394 1119.63 5.62394C1120.74 5.62394 1122.36 6.00794 1124.5 6.77594C1126.63 7.54394 1128.76 8.65327 1130.9 10.1039C1133.03 11.4693 1134.91 13.1333 1136.53 15.0959C1138.15 16.9733 1138.96 19.0213 1138.96 21.2399C1138.96 23.5439 1138.41 25.8053 1137.3 28.0239C1135.16 31.8639 1132.82 36.2586 1130.26 41.2079C1127.78 46.1573 1125.18 51.4479 1122.45 57.0799C1119.72 62.6266 1116.94 68.3439 1114.13 74.2319C1111.4 80.1199 1108.71 85.9226 1106.06 91.6399C1103.5 97.2719 1101.03 102.648 1098.64 107.768C1096.34 112.888 1094.29 117.453 1092.5 121.464C1090.7 124.963 1087.85 126.712 1083.92 126.712C1083.24 126.712 1082.51 126.669 1081.74 126.584C1081.06 126.499 1080.25 126.328 1079.31 126.072L1079.44 126.2C1077.82 125.859 1076.41 125.517 1075.22 125.176C1074.11 124.835 1073 124.493 1071.89 124.152C1070.86 123.811 1069.8 123.469 1068.69 123.128C1067.66 122.787 1066.47 122.403 1065.1 121.976C1062.37 120.952 1060.5 119.416 1059.47 117.368C1058.45 115.235 1057.85 112.888 1057.68 110.328V106.36C1057.51 103.885 1057.38 101.112 1057.3 98.0399C1057.21 94.8826 1057.17 91.6826 1057.17 88.4399V83.9599C1055.12 87.5439 1053.07 91.1706 1051.02 94.8399C1049.06 98.4239 1047.18 101.88 1045.39 105.208C1043.6 108.536 1041.94 111.651 1040.4 114.552C1038.86 117.368 1037.58 119.757 1036.56 121.72C1035.37 123.683 1034.13 125.048 1032.85 125.816C1031.65 126.584 1030.29 126.968 1028.75 126.968C1027.56 126.968 1026.41 126.84 1025.3 126.584C1022.74 125.987 1020.18 125.389 1017.62 124.792C1015.14 124.195 1012.88 123.427 1010.83 122.488C1008.78 121.549 1007.12 120.312 1005.84 118.776C1004.56 117.155 1003.92 115.021 1003.92 112.376C1003.92 108.365 1004.05 103.757 1004.3 98.5519C1004.65 93.3466 1005.03 87.8426 1005.46 82.0399C1005.97 76.2373 1006.52 70.3066 1007.12 64.2479C1007.8 58.1039 1008.53 52.0879 1009.3 46.1999C1010.06 40.2266 1010.83 34.5093 1011.6 29.0479C1012.45 23.5866 1013.26 18.6373 1014.03 14.1999C1014.54 11.6399 1015.31 9.80527 1016.34 8.69594C1017.36 7.50127 1018.9 6.90394 1020.94 6.90394C1022.05 6.90394 1023.12 7.03194 1024.14 7.28794C1026.7 7.79994 1029.14 8.43994 1031.44 9.20794C1033.83 9.89061 1035.88 10.7866 1037.58 11.8959C1039.38 13.0053 1040.78 14.4133 1041.81 16.1199C1042.92 17.8266 1043.47 19.8746 1043.47 22.2639C1043.47 24.0559 1043.22 25.7626 1042.7 27.3839L1042.83 27.2559C1042.66 28.2799 1042.45 29.6026 1042.19 31.2239C1041.94 32.7599 1041.6 34.5093 1041.17 36.4719Z" stroke="black" stroke-width="7"/>
<path d="M1183.15 25.7199C1183.24 27.4266 1183.37 29.5173 1183.54 31.9919C1183.79 34.4666 1184.05 37.1973 1184.31 40.1839C1184.56 43.1706 1184.86 46.3706 1185.2 49.7839C1185.54 53.1119 1185.88 56.4826 1186.23 59.8959C1188.44 51.2773 1190.71 42.9573 1193.01 34.9359C1195.4 26.9146 1197.7 19.5333 1199.92 12.7919C1201.29 8.61061 1203.85 6.51994 1207.6 6.51994C1208.03 6.51994 1208.54 6.60528 1209.14 6.77594C1209.74 6.86127 1210.42 6.98927 1211.19 7.15994C1212.47 7.50128 1214.09 8.01328 1216.05 8.69594C1218.01 9.37861 1219.93 10.2746 1221.81 11.3839C1223.69 12.4079 1225.31 13.6453 1226.67 15.0959C1228.04 16.5466 1228.72 18.2533 1228.72 20.2159C1228.72 20.8986 1228.64 21.6239 1228.47 22.3919C1228.38 23.1599 1228.17 23.9706 1227.83 24.8239C1226.55 28.8346 1225.18 33.3146 1223.73 38.2639C1222.28 43.2133 1220.74 48.4186 1219.12 53.8799C1217.59 59.3413 1216.01 64.9306 1214.39 70.6479C1212.85 76.3653 1211.31 82.0399 1209.78 87.6719C1208.33 93.3039 1206.88 98.7653 1205.43 104.056C1204.06 109.261 1202.82 114.125 1201.71 118.648L1201.84 118.52C1200.99 122.616 1198.47 124.664 1194.29 124.664C1191.56 124.664 1188.83 124.195 1186.1 123.256C1183.45 122.317 1180.89 121.379 1178.42 120.44C1175.77 119.16 1173.55 116.941 1171.76 113.784C1170.06 110.627 1168.6 106.872 1167.41 102.52C1166.22 98.0826 1165.15 93.1759 1164.21 87.7999C1163.36 82.4239 1162.5 76.9199 1161.65 71.2879C1160.37 75.8959 1159.09 80.5039 1157.81 85.1119C1156.53 89.6346 1155.29 93.9866 1154.1 98.1679C1152.99 102.349 1151.92 106.317 1150.9 110.072C1149.96 113.827 1149.15 117.155 1148.47 120.056C1147.87 121.763 1147.19 123.043 1146.42 123.896C1145.65 124.749 1144.45 125.176 1142.83 125.176C1142.32 125.176 1141.72 125.091 1141.04 124.92C1140.44 124.835 1139.72 124.707 1138.87 124.536L1137.46 124.152C1135.49 123.555 1133.53 122.915 1131.57 122.232C1129.61 121.549 1127.81 120.568 1126.19 119.288L1126.32 119.416C1124.7 118.392 1123.55 117.283 1122.87 116.088C1122.1 114.893 1121.71 113.357 1121.71 111.48C1121.71 110.115 1121.88 108.579 1122.23 106.872L1122.1 107C1122.52 104.525 1123.25 101.027 1124.27 96.5039C1125.3 91.9813 1126.53 86.9466 1127.99 81.3999C1129.35 75.7679 1130.84 69.8373 1132.47 63.6079C1134.09 57.2933 1135.75 51.0639 1137.46 44.9199C1139.16 38.7759 1140.83 32.9306 1142.45 27.3839C1144.07 21.8373 1145.61 17.0159 1147.06 12.9199C1148.68 8.65328 1151.41 6.51994 1155.25 6.51994C1156.44 6.51994 1157.9 6.73328 1159.6 7.15994C1161.31 7.58661 1163.1 8.14128 1164.98 8.82394C1166.85 9.42127 1168.69 10.1039 1170.48 10.8719C1172.27 11.6399 1173.9 12.4079 1175.35 13.1759H1175.22C1178.12 14.3706 1180.08 15.9066 1181.11 17.7839C1182.22 19.5759 1182.9 22.2213 1183.15 25.7199Z" stroke="black" stroke-width="7"/>
<path d="M1346.43 30.8399C1341.91 31.5226 1337.21 32.1199 1332.35 32.6319C1327.48 33.1439 1322.45 33.7413 1317.24 34.4239C1316.22 36.8986 1315.24 39.7573 1314.3 42.9999C1313.36 46.1573 1312.3 49.5279 1311.1 53.1119C1312.89 52.9413 1314.68 52.8133 1316.48 52.7279C1318.27 52.5573 1320.06 52.4719 1321.85 52.4719H1323C1325.31 52.4719 1327.19 53.0266 1328.64 54.1359C1330.17 55.2453 1331.37 56.6106 1332.22 58.2319C1333.16 59.8533 1333.88 61.6026 1334.4 63.4799C1334.91 65.3573 1335.34 67.0639 1335.68 68.5999L1335.55 68.4719C1335.8 69.7519 1335.93 70.6906 1335.93 71.2879C1335.93 73.2506 1335.38 74.6586 1334.27 75.5119C1333.24 76.2799 1331.5 76.8773 1329.02 77.3039C1324.5 78.1573 1319.93 79.0106 1315.32 79.8639C1310.8 80.7173 1306.28 81.6559 1301.76 82.6799C1299.54 89.5066 1297.53 96.1199 1295.74 102.52C1293.95 108.92 1292.33 114.68 1290.88 119.8V119.544C1290.54 121.507 1289.72 122.915 1288.44 123.768C1287.16 124.621 1285.63 125.048 1283.84 125.048C1281.36 125.048 1278.72 124.493 1275.9 123.384C1273.17 122.275 1270.78 121.251 1268.73 120.312C1266.68 119.032 1265.32 117.795 1264.64 116.6C1263.87 115.32 1263.48 113.784 1263.48 111.992C1263.48 110.712 1263.61 109.304 1263.87 107.768C1264.21 105.379 1264.98 101.965 1266.17 97.5279C1267.28 93.0053 1268.6 87.9279 1270.14 82.2959C1271.68 76.6639 1273.26 70.6479 1274.88 64.2479C1276.58 57.7626 1278.16 51.4053 1279.61 45.1759C1281.06 38.9466 1282.3 33.0159 1283.32 27.3839C1284.43 21.6666 1285.12 16.7173 1285.37 12.5359C1289.04 11.5119 1293.05 10.6159 1297.4 9.84794C1301.84 8.99461 1306.36 8.26927 1310.97 7.67194C1315.67 7.07461 1320.36 6.56261 1325.05 6.13594C1329.83 5.70927 1334.44 5.41061 1338.88 5.23994H1339.77C1341.99 5.23994 1343.91 5.87994 1345.53 7.15994C1347.24 8.43994 1348.65 10.0613 1349.76 12.0239C1350.95 13.9013 1351.85 15.9493 1352.44 18.1679C1353.04 20.3866 1353.34 22.4346 1353.34 24.3119C1353.34 26.6159 1352.83 28.1946 1351.8 29.0479C1350.87 29.9013 1349.07 30.4986 1346.43 30.8399Z" stroke="black" stroke-width="7"/>
<path d="M1421.97 14.9679C1424.11 16.7599 1425.81 18.6799 1427.09 20.7279C1428.37 22.6906 1429.35 24.8239 1430.04 27.1279C1430.72 29.4319 1431.19 31.8639 1431.45 34.4239C1431.7 36.9839 1431.83 39.7146 1431.83 42.6159C1431.83 47.3946 1431.4 52.7706 1430.55 58.7439C1429.7 64.7173 1428.37 70.7759 1426.58 76.9199C1424.88 83.0639 1422.66 89.0799 1419.93 94.9679C1417.28 100.771 1414.12 105.933 1410.45 110.456C1406.87 114.979 1402.77 118.648 1398.17 121.464C1393.56 124.195 1388.44 125.56 1382.81 125.56C1380.93 125.56 1379.05 125.432 1377.17 125.176H1377.3C1365.95 124.067 1357.38 120.44 1351.57 114.296C1345.86 108.067 1343 98.7226 1343 86.2639C1343 79.8639 1343.77 73.2079 1345.3 66.2959C1346.84 59.3839 1349.06 52.5999 1351.96 45.9439C1354.94 39.2879 1358.57 33.0159 1362.84 27.1279C1367.1 21.2399 1371.93 16.1626 1377.3 11.8959C1379.86 10.0186 1382.81 8.52527 1386.13 7.41594C1389.46 6.3066 1392.66 5.75194 1395.73 5.75194C1398.04 5.75194 1400.43 6.00794 1402.9 6.51994C1405.46 7.03194 1407.89 7.75727 1410.2 8.69594C1412.59 9.54928 1414.81 10.5306 1416.85 11.6399C1418.9 12.7493 1420.61 13.8586 1421.97 14.9679ZM1400.47 30.8399H1400.34C1398.98 30.8399 1397.35 31.8639 1395.48 33.9119C1393.6 35.9599 1391.64 38.6053 1389.59 41.8479C1387.63 45.0053 1385.71 48.5466 1383.83 52.4719C1381.95 56.3973 1380.33 60.1946 1378.97 63.8639C1377.26 68.4719 1375.89 73.2933 1374.87 78.3279C1373.85 83.2773 1373.33 87.7999 1373.33 91.8959C1373.33 94.8826 1373.63 97.3999 1374.23 99.4479C1374.83 101.411 1375.85 102.392 1377.3 102.392C1378.67 102.392 1380.2 101.496 1381.91 99.7039C1383.7 97.9119 1385.54 95.5226 1387.41 92.5359C1389.29 89.4639 1391.13 85.8799 1392.92 81.7839C1394.71 77.6879 1396.29 73.3359 1397.65 68.7279C1399.1 64.1199 1400.26 59.3413 1401.11 54.3919C1401.96 49.4426 1402.39 44.6213 1402.39 39.9279C1402.39 37.3679 1402.22 35.2773 1401.88 33.6559C1401.62 32.0346 1401.15 31.0959 1400.47 30.8399Z" stroke="black" stroke-width="7"/>
<path d="M1477.04 17.1439C1477.72 19.8746 1478.53 22.7759 1479.47 25.8479C1480.41 28.8346 1481.39 31.9493 1482.41 35.1919C1485.48 31.4373 1488.47 27.7253 1491.37 24.0559C1494.27 20.3866 1497 17.1013 1499.56 14.1999C1502.21 11.2986 1504.6 8.95194 1506.73 7.15994C1508.95 5.36794 1510.83 4.47194 1512.36 4.47194C1514.5 4.47194 1516.59 5.19727 1518.64 6.64794C1520.77 8.09861 1522.65 9.84794 1524.27 11.8959C1525.97 13.9439 1527.34 16.0346 1528.36 18.1679C1529.47 20.3013 1530.03 22.0506 1530.03 23.4159C1530.03 24.8666 1529.69 26.2746 1529 27.6399C1528.41 29.0053 1527.55 30.3279 1526.44 31.6079C1522.09 36.7279 1517.1 42.5306 1511.47 49.0159C1505.92 55.5013 1499.95 62.4133 1493.55 69.7519C1496.28 78.5413 1498.92 86.8613 1501.48 94.7119C1504.04 102.563 1506.43 109.688 1508.65 116.088V115.96C1508.82 116.643 1508.99 117.283 1509.16 117.88C1509.42 118.392 1509.55 119.032 1509.55 119.8C1509.55 122.275 1508.31 123.853 1505.84 124.536C1503.45 125.304 1500.33 125.688 1496.49 125.688C1493.93 125.688 1491.46 125.56 1489.07 125.304C1486.76 124.963 1484.93 124.493 1483.56 123.896C1482.2 123.299 1480.88 122.019 1479.6 120.056C1478.4 118.093 1477.08 115.192 1475.63 111.352C1474.26 107.427 1472.38 102.008 1470 95.0959C1467.52 98.0826 1465.17 100.984 1462.96 103.8C1460.74 106.616 1458.56 109.389 1456.43 112.12C1454.98 113.827 1453.61 115.576 1452.33 117.368C1451.05 119.16 1449.77 120.781 1448.49 122.232C1447.3 123.683 1446.02 124.877 1444.65 125.816C1443.37 126.755 1442.05 127.224 1440.68 127.224C1439.75 127.224 1438.34 126.627 1436.46 125.432C1434.58 124.323 1432.7 122.915 1430.83 121.208C1428.86 119.501 1427.2 117.624 1425.84 115.576C1424.39 113.443 1423.66 111.395 1423.66 109.432V109.048C1423.83 107.171 1424.81 104.952 1426.6 102.392V102.52C1428.48 99.8746 1430.61 96.9306 1433 93.6879C1435.39 90.4453 1437.95 87.0319 1440.68 83.4479C1443.41 79.8639 1446.27 76.1946 1449.26 72.4399C1452.33 68.5999 1455.49 64.8026 1458.73 61.0479C1457.28 56.8666 1455.87 52.6853 1454.51 48.5039C1453.23 44.3226 1451.99 40.3546 1450.8 36.5999C1449.69 32.7599 1448.62 29.2186 1447.6 25.9759C1446.66 22.7333 1445.85 19.8746 1445.16 17.3999V17.5279C1444.99 16.7599 1444.86 16.0346 1444.78 15.3519C1444.69 14.6693 1444.65 14.1146 1444.65 13.6879C1444.65 11.2133 1445.42 9.59194 1446.96 8.82394C1448.58 7.97061 1451.31 7.54394 1455.15 7.54394H1458.35C1461.42 7.54394 1463.98 7.7146 1466.03 8.05594C1468.08 8.31194 1469.78 8.82394 1471.15 9.59194C1472.51 10.2746 1473.62 11.2559 1474.48 12.5359C1475.41 13.7306 1476.27 15.2666 1477.04 17.1439Z" stroke="black" stroke-width="7"/>
</svg>
