<svg width="1557" height="130" viewBox="0 0 1557 130" fill="none" xmlns="http://www.w3.org/2000/svg">
<mask id="path-1-outside-1_486_105" maskUnits="userSpaceOnUse" x="0.511719" y="0.608032" width="1556" height="130" fill="black">
<rect fill="white" x="0.511719" y="0.608032" width="1556" height="130"/>
<path d="M38.0317 100C36.9272 100 36.0317 99.1046 36.0317 98V32.496C36.0317 31.3915 35.1363 30.496 34.0317 30.496H10.5117C9.40715 30.496 8.51172 29.6006 8.51172 28.496V12.4C8.51172 11.2955 9.40715 10.4 10.5117 10.4H86.7677C87.8723 10.4 88.7677 11.2955 88.7677 12.4V28.496C88.7677 29.6006 87.8723 30.496 86.7677 30.496H63.3757C62.2712 30.496 61.3757 31.3915 61.3757 32.496V98C61.3757 99.1046 60.4803 100 59.3757 100H38.0317Z"/>
<path d="M151.714 12.4C151.714 11.2955 152.609 10.4 153.714 10.4H175.058C176.162 10.4 177.058 11.2955 177.058 12.4V98C177.058 99.1046 176.162 100 175.058 100H153.714C152.609 100 151.714 99.1046 151.714 98V12.4ZM117.154 98C117.154 99.1046 116.258 100 115.154 100H93.8097C92.7051 100 91.8097 99.1046 91.8097 98V12.4C91.8097 11.2955 92.7051 10.4 93.8097 10.4H115.154C116.258 10.4 117.154 11.2955 117.154 12.4V98ZM153.506 63.056C153.506 64.1606 152.61 65.056 151.506 65.056H117.362C116.257 65.056 115.362 64.1606 115.362 63.056V46.064C115.362 44.9595 116.257 44.064 117.362 44.064H151.506C152.61 44.064 153.506 44.9595 153.506 46.064V63.056Z"/>
<path d="M211.831 47.088C211.831 45.9835 212.726 45.088 213.831 45.088H251.431C252.535 45.088 253.431 45.9835 253.431 47.088V62.032C253.431 63.1366 252.535 64.032 251.431 64.032H213.831C212.726 64.032 211.831 63.1366 211.831 62.032V47.088ZM213.623 78.416C213.623 79.5206 214.518 80.416 215.623 80.416H258.471C259.575 80.416 260.471 81.3115 260.471 82.416V98C260.471 99.1046 259.575 100 258.471 100H190.535C189.43 100 188.535 99.1046 188.535 98V12.4C188.535 11.2955 189.43 10.4 190.535 10.4H256.807C257.911 10.4 258.807 11.2955 258.807 12.4V27.984C258.807 29.0886 257.911 29.984 256.807 29.984H215.623C214.518 29.984 213.623 30.8795 213.623 31.984V78.416Z"/>
<path d="M344.169 101.792C337.001 101.792 330.387 100.64 324.329 98.336C318.27 96.032 312.979 92.7894 308.457 88.608C304.019 84.3414 300.563 79.392 298.089 73.76C295.614 68.128 294.377 61.9414 294.377 55.2C294.377 48.4587 295.614 42.272 298.089 36.64C300.563 31.008 304.019 26.1014 308.457 21.92C312.979 17.6534 318.27 14.368 324.329 12.064C330.387 9.76003 337.001 8.60803 344.169 8.60803C351.422 8.60803 358.035 9.76003 364.009 12.064C370.067 14.368 375.315 17.6107 379.753 21.792C384.19 25.9734 387.646 30.9227 390.121 36.64C392.681 42.272 393.961 48.4587 393.961 55.2C393.961 61.9414 392.681 68.1707 390.121 73.888C387.646 79.52 384.19 84.4267 379.753 88.608C375.315 92.7894 370.067 96.032 364.009 98.336C358.035 100.64 351.422 101.792 344.169 101.792ZM373.481 121.632C369.641 121.632 366.057 121.205 362.729 120.352C359.401 119.584 356.115 118.304 352.873 116.512C349.715 114.72 346.387 112.288 342.889 109.216C340.115 106.72 337.06 103.745 333.724 100.292C332.662 99.1929 333.195 97.3652 334.677 96.993L356.505 91.5096C357.321 91.3046 358.177 91.6336 358.658 92.3242C360.476 94.9356 362.132 97.0249 363.625 98.592C365.331 100.384 366.995 101.664 368.617 102.432C370.323 103.2 372.115 103.584 373.993 103.584C378.306 103.584 382.295 101.996 385.96 98.8209C386.852 98.0484 388.218 98.0922 388.979 98.9941L397.491 109.089C398.115 109.829 398.123 110.915 397.47 111.63C391.368 118.298 383.371 121.632 373.481 121.632ZM344.169 80.8C347.582 80.8 350.739 80.2027 353.641 79.008C356.627 77.8134 359.187 76.1067 361.321 73.888C363.539 71.584 365.246 68.8534 366.441 65.696C367.721 62.5387 368.361 59.04 368.361 55.2C368.361 51.2747 367.721 47.776 366.441 44.704C365.246 41.5467 363.539 38.8587 361.321 36.64C359.187 34.336 356.627 32.5867 353.641 31.392C350.739 30.1974 347.582 29.6 344.169 29.6C340.755 29.6 337.555 30.1974 334.569 31.392C331.667 32.5867 329.107 34.336 326.889 36.64C324.755 38.8587 323.049 41.5467 321.769 44.704C320.574 47.776 319.977 51.2747 319.977 55.2C319.977 59.04 320.574 62.5387 321.769 65.696C323.049 68.8534 324.755 71.584 326.889 73.888C329.107 76.1067 331.667 77.8134 334.569 79.008C337.555 80.2027 340.755 80.8 344.169 80.8Z"/>
<path d="M442.179 101.792C428.952 101.792 418.627 98.1654 411.203 90.912C403.779 83.6587 400.067 73.376 400.067 60.064V12.4C400.067 11.2955 400.962 10.4 402.067 10.4H423.411C424.515 10.4 425.411 11.2955 425.411 12.4V59.296C425.411 66.976 426.904 72.48 429.891 75.808C432.963 79.136 437.144 80.8 442.435 80.8C447.725 80.8 451.864 79.136 454.851 75.808C457.837 72.48 459.331 66.976 459.331 59.296V12.4C459.331 11.2955 460.226 10.4 461.331 10.4H482.291C483.395 10.4 484.291 11.2955 484.291 12.4V60.064C484.291 73.376 480.579 83.6587 473.155 90.912C465.731 98.1654 455.405 101.792 442.179 101.792Z"/>
<path d="M497.06 100C495.955 100 495.06 99.1046 495.06 98V12.4C495.06 11.2955 495.955 10.4 497.06 10.4H518.404C519.508 10.4 520.404 11.2955 520.404 12.4V98C520.404 99.1046 519.508 100 518.404 100H497.06Z"/>
<path d="M576.707 101.792C569.624 101.792 563.053 100.683 556.995 98.464C551.021 96.16 545.816 92.9174 541.379 88.736C537.027 84.5547 533.613 79.648 531.139 74.016C528.664 68.2987 527.427 62.0267 527.427 55.2C527.427 48.3734 528.664 42.144 531.139 36.512C533.613 30.7947 537.027 25.8454 541.379 21.664C545.816 17.4827 551.021 14.2827 556.995 12.064C563.053 9.76003 569.624 8.60803 576.707 8.60803C584.984 8.60803 592.365 10.0587 598.851 12.96C604.83 15.6002 609.891 19.3004 614.033 24.0605C614.726 24.8571 614.625 26.0559 613.842 26.7644L600.636 38.712C599.799 39.4694 598.506 39.3799 597.73 38.5604C595.202 35.8918 592.461 33.801 589.507 32.288C586.093 30.496 582.253 29.6 577.987 29.6C574.317 29.6 570.947 30.1974 567.875 31.392C564.803 32.5867 562.157 34.336 559.939 36.64C557.805 38.8587 556.099 41.5467 554.819 44.704C553.624 47.8614 553.027 51.36 553.027 55.2C553.027 59.04 553.624 62.5387 554.819 65.696C556.099 68.8534 557.805 71.584 559.939 73.888C562.157 76.1067 564.803 77.8134 567.875 79.008C570.947 80.2027 574.317 80.8 577.987 80.8C582.253 80.8 586.093 79.904 589.507 78.112C592.461 76.5991 595.202 74.5083 597.73 71.8396C598.506 71.0202 599.799 70.9307 600.636 71.688L613.831 83.6259C614.618 84.3384 614.715 85.5456 614.012 86.3415C609.874 91.0271 604.82 94.7266 598.851 97.44C592.365 100.341 584.984 101.792 576.707 101.792Z"/>
<path d="M646.016 76.7039C644.811 77.996 642.644 77.2035 642.557 75.4383L641.425 52.5882C641.398 52.0485 641.591 51.521 641.959 51.1257L679.318 11.0365C679.696 10.6306 680.226 10.4 680.781 10.4H703.247C704.99 10.4 705.899 12.4755 704.716 13.7566L669.415 52L655.335 66.72L646.016 76.7039ZM622.135 100C621.03 100 620.135 99.1046 620.135 98V12.4C620.135 11.2955 621.03 10.4 622.135 10.4H643.223C644.327 10.4 645.223 11.2955 645.223 12.4V98C645.223 99.1046 644.327 100 643.223 100H622.135ZM681.264 100C680.652 100 680.073 99.7195 679.694 99.2388L652.175 64.3572C651.563 63.5813 651.609 62.4746 652.284 61.7527L666.015 47.0643C666.857 46.163 668.307 46.232 669.06 47.2094L707.253 96.7794C708.266 98.0944 707.329 100 705.669 100H681.264Z"/>
<path d="M742.835 100C741.73 100 740.835 99.1046 740.835 98V12.4C740.835 11.2955 741.73 10.4 742.835 10.4H786.659C798.435 10.4 807.224 12.576 813.027 16.928C818.829 21.1947 821.731 26.8267 821.731 33.824C821.731 38.432 820.493 42.4854 818.019 45.984C815.629 49.3974 812.216 52.128 807.779 54.176C804.162 55.807 799.957 56.7603 795.162 57.0359C793.737 57.1178 792.768 55.6682 793.317 54.3508L794.21 52.2068C794.52 51.4615 795.249 50.9727 796.056 50.9909C801.815 51.1204 806.875 52.0968 811.235 53.92C815.928 55.7974 819.555 58.5707 822.115 62.24C824.76 65.824 826.083 70.2187 826.083 75.424C826.083 83.1894 822.925 89.248 816.611 93.6C810.381 97.8667 801.251 100 789.219 100H742.835ZM765.923 79.696C765.923 80.8006 766.818 81.696 767.923 81.696H787.171C791.523 81.696 794.808 80.9707 797.027 79.52C799.331 77.984 800.483 75.68 800.483 72.608C800.483 69.536 799.331 67.2747 797.027 65.824C794.808 64.288 791.523 63.52 787.171 63.52H766.131C765.026 63.52 764.131 62.6246 764.131 61.52V47.984C764.131 46.8795 765.026 45.984 766.131 45.984H783.331C787.597 45.984 790.797 45.2587 792.931 43.808C795.064 42.3574 796.131 40.1814 796.131 37.28C796.131 34.3787 795.064 32.2454 792.931 30.88C790.797 29.4294 787.597 28.704 783.331 28.704H767.923C766.818 28.704 765.923 29.5995 765.923 30.704V79.696Z"/>
<path d="M834.81 100C833.705 100 832.81 99.1046 832.81 98V12.4C832.81 11.2955 833.705 10.4 834.81 10.4H873.77C881.962 10.4 889.002 11.7227 894.89 14.368C900.863 17.0134 905.471 20.8534 908.714 25.888C911.956 30.8374 913.578 36.7254 913.578 43.552C913.578 50.2934 911.956 56.1387 908.714 61.088C905.471 65.952 900.863 69.7067 894.89 72.352C889.002 74.912 881.962 76.192 873.77 76.192H851.925C850.115 76.192 849.236 73.9791 850.553 72.7371L854.781 68.7487C856.057 67.5454 858.154 68.4499 858.154 70.2037V98C858.154 99.1046 857.258 100 856.154 100H834.81ZM889.29 100C888.629 100 888.011 99.6734 887.638 99.1273L868.096 70.4873C867.19 69.1597 868.14 67.36 869.748 67.36H891.917C892.576 67.36 893.193 67.6848 893.566 68.2284L913.22 96.8684C914.131 98.1955 913.181 100 911.571 100H889.29ZM858.154 63.3108C858.154 65.1088 855.966 65.9936 854.716 64.7011L850.168 59.9984C848.941 58.7291 849.84 56.608 851.606 56.608H872.234C877.524 56.608 881.45 55.456 884.01 53.152C886.655 50.848 887.978 47.648 887.978 43.552C887.978 39.3707 886.655 36.128 884.01 33.824C881.45 31.52 877.524 30.368 872.234 30.368H851.606C849.84 30.368 848.941 28.247 850.168 26.9777L854.716 22.2749C855.966 20.9824 858.154 21.8672 858.154 23.6653V63.3108Z"/>
<path d="M966.344 101.792C959.176 101.792 952.562 100.64 946.504 98.336C940.445 96.032 935.154 92.7894 930.632 88.608C926.194 84.3414 922.738 79.392 920.264 73.76C917.789 68.128 916.552 61.9414 916.552 55.2C916.552 48.4587 917.789 42.272 920.264 36.64C922.738 31.008 926.194 26.1014 930.632 21.92C935.154 17.6534 940.445 14.368 946.504 12.064C952.562 9.76003 959.176 8.60803 966.344 8.60803C973.597 8.60803 980.21 9.76003 986.184 12.064C992.242 14.368 997.49 17.6534 1001.93 21.92C1006.37 26.1014 1009.82 31.008 1012.3 36.64C1014.86 42.272 1016.14 48.4587 1016.14 55.2C1016.14 61.9414 1014.86 68.1707 1012.3 73.888C1009.82 79.52 1006.37 84.4267 1001.93 88.608C997.49 92.7894 992.242 96.032 986.184 98.336C980.21 100.64 973.597 101.792 966.344 101.792ZM966.344 80.8C969.757 80.8 972.914 80.2027 975.816 79.008C978.802 77.8134 981.362 76.1067 983.496 73.888C985.714 71.584 987.421 68.8534 988.616 65.696C989.896 62.5387 990.536 59.04 990.536 55.2C990.536 51.2747 989.896 47.776 988.616 44.704C987.421 41.5467 985.714 38.8587 983.496 36.64C981.362 34.336 978.802 32.5867 975.816 31.392C972.914 30.1974 969.757 29.6 966.344 29.6C962.93 29.6 959.73 30.1974 956.744 31.392C953.842 32.5867 951.282 34.336 949.064 36.64C946.93 38.8587 945.224 41.5467 943.944 44.704C942.749 47.776 942.152 51.2747 942.152 55.2C942.152 59.04 942.749 62.5387 943.944 65.696C945.224 68.8534 946.93 71.584 949.064 73.888C951.282 76.1067 953.842 77.8134 956.744 79.008C959.73 80.2027 962.93 80.8 966.344 80.8Z"/>
<path d="M1043.61 100C1042.74 100 1041.97 99.4416 1041.71 98.617L1013.95 13.017C1013.53 11.725 1014.49 10.4 1015.85 10.4H1037.74C1038.62 10.4 1039.39 10.9662 1039.65 11.7988L1062.84 85.3668C1063.24 86.6557 1062.28 87.968 1060.93 87.968H1053.24C1051.88 87.968 1050.92 86.6329 1051.35 85.3384L1075.75 11.7704C1076.02 10.9523 1076.78 10.4 1077.65 10.4H1098.03C1098.9 10.4 1099.68 10.9676 1099.94 11.8017L1123 85.3697C1123.41 86.6579 1122.44 87.968 1121.09 87.968H1113.9C1112.54 87.968 1111.58 86.642 1112 85.3497L1135.91 11.7817C1136.18 10.9578 1136.95 10.4 1137.81 10.4H1157.8C1159.16 10.4 1160.12 11.725 1159.71 13.017L1131.95 98.617C1131.68 99.4416 1130.91 100 1130.04 100H1105.83C1104.96 100 1104.18 99.4333 1103.92 98.6002L1084.44 36.6802C1084.04 35.3916 1085 34.08 1086.35 34.08H1088.16C1089.52 34.08 1090.49 35.4103 1090.06 36.7036L1069.74 98.6236C1069.47 99.4448 1068.71 100 1067.84 100H1043.61Z"/>
<path d="M1165.23 100C1164.13 100 1163.23 99.1046 1163.23 98V12.4C1163.23 11.2955 1164.13 10.4 1165.23 10.4H1183.16C1183.75 10.4 1184.32 10.6655 1184.7 11.1242L1230.79 66.7722C1231.87 68.0759 1230.95 70.048 1229.25 70.048H1225.65C1224.55 70.048 1223.65 69.1526 1223.65 68.048V12.4C1223.65 11.2955 1224.55 10.4 1225.65 10.4H1246.48C1247.59 10.4 1248.48 11.2955 1248.48 12.4V98C1248.48 99.1046 1247.59 100 1246.48 100H1228.56C1227.96 100 1227.4 99.7346 1227.02 99.2759L1180.92 43.6279C1179.84 42.3241 1180.77 40.352 1182.46 40.352H1186.07C1187.17 40.352 1188.07 41.2475 1188.07 42.352V98C1188.07 99.1046 1187.17 100 1186.07 100H1165.23Z"/>
<path d="M1314.36 51.696C1314.36 50.5915 1315.26 49.696 1316.36 49.696H1353.71C1354.81 49.696 1355.71 50.5915 1355.71 51.696V67.28C1355.71 68.3846 1354.81 69.28 1353.71 69.28H1316.36C1315.26 69.28 1314.36 68.3846 1314.36 67.28V51.696ZM1316.15 98C1316.15 99.1046 1315.26 100 1314.15 100H1292.81C1291.71 100 1290.81 99.1046 1290.81 98V12.4C1290.81 11.2955 1291.71 10.4 1292.81 10.4H1359.08C1360.19 10.4 1361.08 11.2955 1361.08 12.4V27.984C1361.08 29.0886 1360.19 29.984 1359.08 29.984H1318.15C1317.05 29.984 1316.15 30.8795 1316.15 31.984V98Z"/>
<path d="M1410.97 101.792C1403.8 101.792 1397.19 100.64 1391.13 98.336C1385.07 96.032 1379.78 92.7894 1375.26 88.608C1370.82 84.3414 1367.36 79.392 1364.89 73.76C1362.41 68.128 1361.18 61.9414 1361.18 55.2C1361.18 48.4587 1362.41 42.272 1364.89 36.64C1367.36 31.008 1370.82 26.1014 1375.26 21.92C1379.78 17.6534 1385.07 14.368 1391.13 12.064C1397.19 9.76003 1403.8 8.60803 1410.97 8.60803C1418.22 8.60803 1424.84 9.76003 1430.81 12.064C1436.87 14.368 1442.12 17.6534 1446.55 21.92C1450.99 26.1014 1454.45 31.008 1456.92 36.64C1459.48 42.272 1460.76 48.4587 1460.76 55.2C1460.76 61.9414 1459.48 68.1707 1456.92 73.888C1454.45 79.52 1450.99 84.4267 1446.55 88.608C1442.12 92.7894 1436.87 96.032 1430.81 98.336C1424.84 100.64 1418.22 101.792 1410.97 101.792ZM1410.97 80.8C1414.38 80.8 1417.54 80.2027 1420.44 79.008C1423.43 77.8134 1425.99 76.1067 1428.12 73.888C1430.34 71.584 1432.05 68.8534 1433.24 65.696C1434.52 62.5387 1435.16 59.04 1435.16 55.2C1435.16 51.2747 1434.52 47.776 1433.24 44.704C1432.05 41.5467 1430.34 38.8587 1428.12 36.64C1425.99 34.336 1423.43 32.5867 1420.44 31.392C1417.54 30.1974 1414.38 29.6 1410.97 29.6C1407.56 29.6 1404.36 30.1974 1401.37 31.392C1398.47 32.5867 1395.91 34.336 1393.69 36.64C1391.56 38.8587 1389.85 41.5467 1388.57 44.704C1387.37 47.776 1386.78 51.2747 1386.78 55.2C1386.78 59.04 1387.37 62.5387 1388.57 65.696C1389.85 68.8534 1391.56 71.584 1393.69 73.888C1395.91 76.1067 1398.47 77.8134 1401.37 79.008C1404.36 80.2027 1407.56 80.8 1410.97 80.8Z"/>
<path d="M1459.07 100C1457.44 100 1456.5 98.1544 1457.45 96.8314L1490.67 50.6939C1491.81 49.1121 1494.31 49.9276 1494.29 51.8767L1494.25 57.4295C1494.24 59.373 1491.74 60.1568 1490.62 58.5696L1458.81 13.5543C1457.87 12.2296 1458.82 10.4 1460.44 10.4H1484.07C1484.73 10.4 1485.34 10.7214 1485.72 11.26L1507.03 41.9879C1507.95 43.3063 1507.02 45.1109 1505.41 45.1277L1500.85 45.1757C1499.24 45.1927 1498.27 43.3868 1499.18 42.0511L1520.11 11.2752C1520.48 10.7277 1521.1 10.4 1521.76 10.4H1544.19C1545.82 10.4 1546.77 12.2464 1545.81 13.5693L1514.09 57.5967C1512.95 59.1718 1510.46 58.3689 1510.46 56.4275V50.9216C1510.46 48.9781 1512.96 48.1766 1514.09 49.7555L1547.87 96.834C1548.82 98.1573 1547.88 100 1546.25 100H1522.03C1521.36 100 1520.74 99.6675 1520.37 99.1135L1498.6 66.6335C1497.71 65.3047 1498.66 63.52 1500.26 63.52H1504.45C1506.04 63.52 1506.99 65.2916 1506.12 66.6213L1484.69 99.1013C1484.32 99.6624 1483.69 100 1483.02 100H1459.07Z"/>
</mask>
<path d="M38.0317 100C36.9272 100 36.0317 99.1046 36.0317 98V32.496C36.0317 31.3915 35.1363 30.496 34.0317 30.496H10.5117C9.40715 30.496 8.51172 29.6006 8.51172 28.496V12.4C8.51172 11.2955 9.40715 10.4 10.5117 10.4H86.7677C87.8723 10.4 88.7677 11.2955 88.7677 12.4V28.496C88.7677 29.6006 87.8723 30.496 86.7677 30.496H63.3757C62.2712 30.496 61.3757 31.3915 61.3757 32.496V98C61.3757 99.1046 60.4803 100 59.3757 100H38.0317Z" fill="white"/>
<path d="M151.714 12.4C151.714 11.2955 152.609 10.4 153.714 10.4H175.058C176.162 10.4 177.058 11.2955 177.058 12.4V98C177.058 99.1046 176.162 100 175.058 100H153.714C152.609 100 151.714 99.1046 151.714 98V12.4ZM117.154 98C117.154 99.1046 116.258 100 115.154 100H93.8097C92.7051 100 91.8097 99.1046 91.8097 98V12.4C91.8097 11.2955 92.7051 10.4 93.8097 10.4H115.154C116.258 10.4 117.154 11.2955 117.154 12.4V98ZM153.506 63.056C153.506 64.1606 152.61 65.056 151.506 65.056H117.362C116.257 65.056 115.362 64.1606 115.362 63.056V46.064C115.362 44.9595 116.257 44.064 117.362 44.064H151.506C152.61 44.064 153.506 44.9595 153.506 46.064V63.056Z" fill="white"/>
<path d="M211.831 47.088C211.831 45.9835 212.726 45.088 213.831 45.088H251.431C252.535 45.088 253.431 45.9835 253.431 47.088V62.032C253.431 63.1366 252.535 64.032 251.431 64.032H213.831C212.726 64.032 211.831 63.1366 211.831 62.032V47.088ZM213.623 78.416C213.623 79.5206 214.518 80.416 215.623 80.416H258.471C259.575 80.416 260.471 81.3115 260.471 82.416V98C260.471 99.1046 259.575 100 258.471 100H190.535C189.43 100 188.535 99.1046 188.535 98V12.4C188.535 11.2955 189.43 10.4 190.535 10.4H256.807C257.911 10.4 258.807 11.2955 258.807 12.4V27.984C258.807 29.0886 257.911 29.984 256.807 29.984H215.623C214.518 29.984 213.623 30.8795 213.623 31.984V78.416Z" fill="white"/>
<path d="M344.169 101.792C337.001 101.792 330.387 100.64 324.329 98.336C318.27 96.032 312.979 92.7894 308.457 88.608C304.019 84.3414 300.563 79.392 298.089 73.76C295.614 68.128 294.377 61.9414 294.377 55.2C294.377 48.4587 295.614 42.272 298.089 36.64C300.563 31.008 304.019 26.1014 308.457 21.92C312.979 17.6534 318.27 14.368 324.329 12.064C330.387 9.76003 337.001 8.60803 344.169 8.60803C351.422 8.60803 358.035 9.76003 364.009 12.064C370.067 14.368 375.315 17.6107 379.753 21.792C384.19 25.9734 387.646 30.9227 390.121 36.64C392.681 42.272 393.961 48.4587 393.961 55.2C393.961 61.9414 392.681 68.1707 390.121 73.888C387.646 79.52 384.19 84.4267 379.753 88.608C375.315 92.7894 370.067 96.032 364.009 98.336C358.035 100.64 351.422 101.792 344.169 101.792ZM373.481 121.632C369.641 121.632 366.057 121.205 362.729 120.352C359.401 119.584 356.115 118.304 352.873 116.512C349.715 114.72 346.387 112.288 342.889 109.216C340.115 106.72 337.06 103.745 333.724 100.292C332.662 99.1929 333.195 97.3652 334.677 96.993L356.505 91.5096C357.321 91.3046 358.177 91.6336 358.658 92.3242C360.476 94.9356 362.132 97.0249 363.625 98.592C365.331 100.384 366.995 101.664 368.617 102.432C370.323 103.2 372.115 103.584 373.993 103.584C378.306 103.584 382.295 101.996 385.96 98.8209C386.852 98.0484 388.218 98.0922 388.979 98.9941L397.491 109.089C398.115 109.829 398.123 110.915 397.47 111.63C391.368 118.298 383.371 121.632 373.481 121.632ZM344.169 80.8C347.582 80.8 350.739 80.2027 353.641 79.008C356.627 77.8134 359.187 76.1067 361.321 73.888C363.539 71.584 365.246 68.8534 366.441 65.696C367.721 62.5387 368.361 59.04 368.361 55.2C368.361 51.2747 367.721 47.776 366.441 44.704C365.246 41.5467 363.539 38.8587 361.321 36.64C359.187 34.336 356.627 32.5867 353.641 31.392C350.739 30.1974 347.582 29.6 344.169 29.6C340.755 29.6 337.555 30.1974 334.569 31.392C331.667 32.5867 329.107 34.336 326.889 36.64C324.755 38.8587 323.049 41.5467 321.769 44.704C320.574 47.776 319.977 51.2747 319.977 55.2C319.977 59.04 320.574 62.5387 321.769 65.696C323.049 68.8534 324.755 71.584 326.889 73.888C329.107 76.1067 331.667 77.8134 334.569 79.008C337.555 80.2027 340.755 80.8 344.169 80.8Z" fill="white"/>
<path d="M442.179 101.792C428.952 101.792 418.627 98.1654 411.203 90.912C403.779 83.6587 400.067 73.376 400.067 60.064V12.4C400.067 11.2955 400.962 10.4 402.067 10.4H423.411C424.515 10.4 425.411 11.2955 425.411 12.4V59.296C425.411 66.976 426.904 72.48 429.891 75.808C432.963 79.136 437.144 80.8 442.435 80.8C447.725 80.8 451.864 79.136 454.851 75.808C457.837 72.48 459.331 66.976 459.331 59.296V12.4C459.331 11.2955 460.226 10.4 461.331 10.4H482.291C483.395 10.4 484.291 11.2955 484.291 12.4V60.064C484.291 73.376 480.579 83.6587 473.155 90.912C465.731 98.1654 455.405 101.792 442.179 101.792Z" fill="white"/>
<path d="M497.06 100C495.955 100 495.06 99.1046 495.06 98V12.4C495.06 11.2955 495.955 10.4 497.06 10.4H518.404C519.508 10.4 520.404 11.2955 520.404 12.4V98C520.404 99.1046 519.508 100 518.404 100H497.06Z" fill="white"/>
<path d="M576.707 101.792C569.624 101.792 563.053 100.683 556.995 98.464C551.021 96.16 545.816 92.9174 541.379 88.736C537.027 84.5547 533.613 79.648 531.139 74.016C528.664 68.2987 527.427 62.0267 527.427 55.2C527.427 48.3734 528.664 42.144 531.139 36.512C533.613 30.7947 537.027 25.8454 541.379 21.664C545.816 17.4827 551.021 14.2827 556.995 12.064C563.053 9.76003 569.624 8.60803 576.707 8.60803C584.984 8.60803 592.365 10.0587 598.851 12.96C604.83 15.6002 609.891 19.3004 614.033 24.0605C614.726 24.8571 614.625 26.0559 613.842 26.7644L600.636 38.712C599.799 39.4694 598.506 39.3799 597.73 38.5604C595.202 35.8918 592.461 33.801 589.507 32.288C586.093 30.496 582.253 29.6 577.987 29.6C574.317 29.6 570.947 30.1974 567.875 31.392C564.803 32.5867 562.157 34.336 559.939 36.64C557.805 38.8587 556.099 41.5467 554.819 44.704C553.624 47.8614 553.027 51.36 553.027 55.2C553.027 59.04 553.624 62.5387 554.819 65.696C556.099 68.8534 557.805 71.584 559.939 73.888C562.157 76.1067 564.803 77.8134 567.875 79.008C570.947 80.2027 574.317 80.8 577.987 80.8C582.253 80.8 586.093 79.904 589.507 78.112C592.461 76.5991 595.202 74.5083 597.73 71.8396C598.506 71.0202 599.799 70.9307 600.636 71.688L613.831 83.6259C614.618 84.3384 614.715 85.5456 614.012 86.3415C609.874 91.0271 604.82 94.7266 598.851 97.44C592.365 100.341 584.984 101.792 576.707 101.792Z" fill="white"/>
<path d="M646.016 76.7039C644.811 77.996 642.644 77.2035 642.557 75.4383L641.425 52.5882C641.398 52.0485 641.591 51.521 641.959 51.1257L679.318 11.0365C679.696 10.6306 680.226 10.4 680.781 10.4H703.247C704.99 10.4 705.899 12.4755 704.716 13.7566L669.415 52L655.335 66.72L646.016 76.7039ZM622.135 100C621.03 100 620.135 99.1046 620.135 98V12.4C620.135 11.2955 621.03 10.4 622.135 10.4H643.223C644.327 10.4 645.223 11.2955 645.223 12.4V98C645.223 99.1046 644.327 100 643.223 100H622.135ZM681.264 100C680.652 100 680.073 99.7195 679.694 99.2388L652.175 64.3572C651.563 63.5813 651.609 62.4746 652.284 61.7527L666.015 47.0643C666.857 46.163 668.307 46.232 669.06 47.2094L707.253 96.7794C708.266 98.0944 707.329 100 705.669 100H681.264Z" fill="white"/>
<path d="M742.835 100C741.73 100 740.835 99.1046 740.835 98V12.4C740.835 11.2955 741.73 10.4 742.835 10.4H786.659C798.435 10.4 807.224 12.576 813.027 16.928C818.829 21.1947 821.731 26.8267 821.731 33.824C821.731 38.432 820.493 42.4854 818.019 45.984C815.629 49.3974 812.216 52.128 807.779 54.176C804.162 55.807 799.957 56.7603 795.162 57.0359C793.737 57.1178 792.768 55.6682 793.317 54.3508L794.21 52.2068C794.52 51.4615 795.249 50.9727 796.056 50.9909C801.815 51.1204 806.875 52.0968 811.235 53.92C815.928 55.7974 819.555 58.5707 822.115 62.24C824.76 65.824 826.083 70.2187 826.083 75.424C826.083 83.1894 822.925 89.248 816.611 93.6C810.381 97.8667 801.251 100 789.219 100H742.835ZM765.923 79.696C765.923 80.8006 766.818 81.696 767.923 81.696H787.171C791.523 81.696 794.808 80.9707 797.027 79.52C799.331 77.984 800.483 75.68 800.483 72.608C800.483 69.536 799.331 67.2747 797.027 65.824C794.808 64.288 791.523 63.52 787.171 63.52H766.131C765.026 63.52 764.131 62.6246 764.131 61.52V47.984C764.131 46.8795 765.026 45.984 766.131 45.984H783.331C787.597 45.984 790.797 45.2587 792.931 43.808C795.064 42.3574 796.131 40.1814 796.131 37.28C796.131 34.3787 795.064 32.2454 792.931 30.88C790.797 29.4294 787.597 28.704 783.331 28.704H767.923C766.818 28.704 765.923 29.5995 765.923 30.704V79.696Z" fill="#4BE920"/>
<path d="M834.81 100C833.705 100 832.81 99.1046 832.81 98V12.4C832.81 11.2955 833.705 10.4 834.81 10.4H873.77C881.962 10.4 889.002 11.7227 894.89 14.368C900.863 17.0134 905.471 20.8534 908.714 25.888C911.956 30.8374 913.578 36.7254 913.578 43.552C913.578 50.2934 911.956 56.1387 908.714 61.088C905.471 65.952 900.863 69.7067 894.89 72.352C889.002 74.912 881.962 76.192 873.77 76.192H851.925C850.115 76.192 849.236 73.9791 850.553 72.7371L854.781 68.7487C856.057 67.5454 858.154 68.4499 858.154 70.2037V98C858.154 99.1046 857.258 100 856.154 100H834.81ZM889.29 100C888.629 100 888.011 99.6734 887.638 99.1273L868.096 70.4873C867.19 69.1597 868.14 67.36 869.748 67.36H891.917C892.576 67.36 893.193 67.6848 893.566 68.2284L913.22 96.8684C914.131 98.1955 913.181 100 911.571 100H889.29ZM858.154 63.3108C858.154 65.1088 855.966 65.9936 854.716 64.7011L850.168 59.9984C848.941 58.7291 849.84 56.608 851.606 56.608H872.234C877.524 56.608 881.45 55.456 884.01 53.152C886.655 50.848 887.978 47.648 887.978 43.552C887.978 39.3707 886.655 36.128 884.01 33.824C881.45 31.52 877.524 30.368 872.234 30.368H851.606C849.84 30.368 848.941 28.247 850.168 26.9777L854.716 22.2749C855.966 20.9824 858.154 21.8672 858.154 23.6653V63.3108Z" fill="#4BE920"/>
<path d="M966.344 101.792C959.176 101.792 952.562 100.64 946.504 98.336C940.445 96.032 935.154 92.7894 930.632 88.608C926.194 84.3414 922.738 79.392 920.264 73.76C917.789 68.128 916.552 61.9414 916.552 55.2C916.552 48.4587 917.789 42.272 920.264 36.64C922.738 31.008 926.194 26.1014 930.632 21.92C935.154 17.6534 940.445 14.368 946.504 12.064C952.562 9.76003 959.176 8.60803 966.344 8.60803C973.597 8.60803 980.21 9.76003 986.184 12.064C992.242 14.368 997.49 17.6534 1001.93 21.92C1006.37 26.1014 1009.82 31.008 1012.3 36.64C1014.86 42.272 1016.14 48.4587 1016.14 55.2C1016.14 61.9414 1014.86 68.1707 1012.3 73.888C1009.82 79.52 1006.37 84.4267 1001.93 88.608C997.49 92.7894 992.242 96.032 986.184 98.336C980.21 100.64 973.597 101.792 966.344 101.792ZM966.344 80.8C969.757 80.8 972.914 80.2027 975.816 79.008C978.802 77.8134 981.362 76.1067 983.496 73.888C985.714 71.584 987.421 68.8534 988.616 65.696C989.896 62.5387 990.536 59.04 990.536 55.2C990.536 51.2747 989.896 47.776 988.616 44.704C987.421 41.5467 985.714 38.8587 983.496 36.64C981.362 34.336 978.802 32.5867 975.816 31.392C972.914 30.1974 969.757 29.6 966.344 29.6C962.93 29.6 959.73 30.1974 956.744 31.392C953.842 32.5867 951.282 34.336 949.064 36.64C946.93 38.8587 945.224 41.5467 943.944 44.704C942.749 47.776 942.152 51.2747 942.152 55.2C942.152 59.04 942.749 62.5387 943.944 65.696C945.224 68.8534 946.93 71.584 949.064 73.888C951.282 76.1067 953.842 77.8134 956.744 79.008C959.73 80.2027 962.93 80.8 966.344 80.8Z" fill="#4BE920"/>
<path d="M1043.61 100C1042.74 100 1041.97 99.4416 1041.71 98.617L1013.95 13.017C1013.53 11.725 1014.49 10.4 1015.85 10.4H1037.74C1038.62 10.4 1039.39 10.9662 1039.65 11.7988L1062.84 85.3668C1063.24 86.6557 1062.28 87.968 1060.93 87.968H1053.24C1051.88 87.968 1050.92 86.6329 1051.35 85.3384L1075.75 11.7704C1076.02 10.9523 1076.78 10.4 1077.65 10.4H1098.03C1098.9 10.4 1099.68 10.9676 1099.94 11.8017L1123 85.3697C1123.41 86.6579 1122.44 87.968 1121.09 87.968H1113.9C1112.54 87.968 1111.58 86.642 1112 85.3497L1135.91 11.7817C1136.18 10.9578 1136.95 10.4 1137.81 10.4H1157.8C1159.16 10.4 1160.12 11.725 1159.71 13.017L1131.95 98.617C1131.68 99.4416 1130.91 100 1130.04 100H1105.83C1104.96 100 1104.18 99.4333 1103.92 98.6002L1084.44 36.6802C1084.04 35.3916 1085 34.08 1086.35 34.08H1088.16C1089.52 34.08 1090.49 35.4103 1090.06 36.7036L1069.74 98.6236C1069.47 99.4448 1068.71 100 1067.84 100H1043.61Z" fill="#4BE920"/>
<path d="M1165.23 100C1164.13 100 1163.23 99.1046 1163.23 98V12.4C1163.23 11.2955 1164.13 10.4 1165.23 10.4H1183.16C1183.75 10.4 1184.32 10.6655 1184.7 11.1242L1230.79 66.7722C1231.87 68.0759 1230.95 70.048 1229.25 70.048H1225.65C1224.55 70.048 1223.65 69.1526 1223.65 68.048V12.4C1223.65 11.2955 1224.55 10.4 1225.65 10.4H1246.48C1247.59 10.4 1248.48 11.2955 1248.48 12.4V98C1248.48 99.1046 1247.59 100 1246.48 100H1228.56C1227.96 100 1227.4 99.7346 1227.02 99.2759L1180.92 43.6279C1179.84 42.3241 1180.77 40.352 1182.46 40.352H1186.07C1187.17 40.352 1188.07 41.2475 1188.07 42.352V98C1188.07 99.1046 1187.17 100 1186.07 100H1165.23Z" fill="#4BE920"/>
<path d="M1314.36 51.696C1314.36 50.5915 1315.26 49.696 1316.36 49.696H1353.71C1354.81 49.696 1355.71 50.5915 1355.71 51.696V67.28C1355.71 68.3846 1354.81 69.28 1353.71 69.28H1316.36C1315.26 69.28 1314.36 68.3846 1314.36 67.28V51.696ZM1316.15 98C1316.15 99.1046 1315.26 100 1314.15 100H1292.81C1291.71 100 1290.81 99.1046 1290.81 98V12.4C1290.81 11.2955 1291.71 10.4 1292.81 10.4H1359.08C1360.19 10.4 1361.08 11.2955 1361.08 12.4V27.984C1361.08 29.0886 1360.19 29.984 1359.08 29.984H1318.15C1317.05 29.984 1316.15 30.8795 1316.15 31.984V98Z" fill="white"/>
<path d="M1410.97 101.792C1403.8 101.792 1397.19 100.64 1391.13 98.336C1385.07 96.032 1379.78 92.7894 1375.26 88.608C1370.82 84.3414 1367.36 79.392 1364.89 73.76C1362.41 68.128 1361.18 61.9414 1361.18 55.2C1361.18 48.4587 1362.41 42.272 1364.89 36.64C1367.36 31.008 1370.82 26.1014 1375.26 21.92C1379.78 17.6534 1385.07 14.368 1391.13 12.064C1397.19 9.76003 1403.8 8.60803 1410.97 8.60803C1418.22 8.60803 1424.84 9.76003 1430.81 12.064C1436.87 14.368 1442.12 17.6534 1446.55 21.92C1450.99 26.1014 1454.45 31.008 1456.92 36.64C1459.48 42.272 1460.76 48.4587 1460.76 55.2C1460.76 61.9414 1459.48 68.1707 1456.92 73.888C1454.45 79.52 1450.99 84.4267 1446.55 88.608C1442.12 92.7894 1436.87 96.032 1430.81 98.336C1424.84 100.64 1418.22 101.792 1410.97 101.792ZM1410.97 80.8C1414.38 80.8 1417.54 80.2027 1420.44 79.008C1423.43 77.8134 1425.99 76.1067 1428.12 73.888C1430.34 71.584 1432.05 68.8534 1433.24 65.696C1434.52 62.5387 1435.16 59.04 1435.16 55.2C1435.16 51.2747 1434.52 47.776 1433.24 44.704C1432.05 41.5467 1430.34 38.8587 1428.12 36.64C1425.99 34.336 1423.43 32.5867 1420.44 31.392C1417.54 30.1974 1414.38 29.6 1410.97 29.6C1407.56 29.6 1404.36 30.1974 1401.37 31.392C1398.47 32.5867 1395.91 34.336 1393.69 36.64C1391.56 38.8587 1389.85 41.5467 1388.57 44.704C1387.37 47.776 1386.78 51.2747 1386.78 55.2C1386.78 59.04 1387.37 62.5387 1388.57 65.696C1389.85 68.8534 1391.56 71.584 1393.69 73.888C1395.91 76.1067 1398.47 77.8134 1401.37 79.008C1404.36 80.2027 1407.56 80.8 1410.97 80.8Z" fill="white"/>
<path d="M1459.07 100C1457.44 100 1456.5 98.1544 1457.45 96.8314L1490.67 50.6939C1491.81 49.1121 1494.31 49.9276 1494.29 51.8767L1494.25 57.4295C1494.24 59.373 1491.74 60.1568 1490.62 58.5696L1458.81 13.5543C1457.87 12.2296 1458.82 10.4 1460.44 10.4H1484.07C1484.73 10.4 1485.34 10.7214 1485.72 11.26L1507.03 41.9879C1507.95 43.3063 1507.02 45.1109 1505.41 45.1277L1500.85 45.1757C1499.24 45.1927 1498.27 43.3868 1499.18 42.0511L1520.11 11.2752C1520.48 10.7277 1521.1 10.4 1521.76 10.4H1544.19C1545.82 10.4 1546.77 12.2464 1545.81 13.5693L1514.09 57.5967C1512.95 59.1718 1510.46 58.3689 1510.46 56.4275V50.9216C1510.46 48.9781 1512.96 48.1766 1514.09 49.7555L1547.87 96.834C1548.82 98.1573 1547.88 100 1546.25 100H1522.03C1521.36 100 1520.74 99.6675 1520.37 99.1135L1498.6 66.6335C1497.71 65.3047 1498.66 63.52 1500.26 63.52H1504.45C1506.04 63.52 1506.99 65.2916 1506.12 66.6213L1484.69 99.1013C1484.32 99.6624 1483.69 100 1483.02 100H1459.07Z" fill="white"/>
<path d="M38.0317 100C36.9272 100 36.0317 99.1046 36.0317 98V32.496C36.0317 31.3915 35.1363 30.496 34.0317 30.496H10.5117C9.40715 30.496 8.51172 29.6006 8.51172 28.496V12.4C8.51172 11.2955 9.40715 10.4 10.5117 10.4H86.7677C87.8723 10.4 88.7677 11.2955 88.7677 12.4V28.496C88.7677 29.6006 87.8723 30.496 86.7677 30.496H63.3757C62.2712 30.496 61.3757 31.3915 61.3757 32.496V98C61.3757 99.1046 60.4803 100 59.3757 100H38.0317Z" stroke="black" stroke-width="16" mask="url(#path-1-outside-1_486_105)"/>
<path d="M151.714 12.4C151.714 11.2955 152.609 10.4 153.714 10.4H175.058C176.162 10.4 177.058 11.2955 177.058 12.4V98C177.058 99.1046 176.162 100 175.058 100H153.714C152.609 100 151.714 99.1046 151.714 98V12.4ZM117.154 98C117.154 99.1046 116.258 100 115.154 100H93.8097C92.7051 100 91.8097 99.1046 91.8097 98V12.4C91.8097 11.2955 92.7051 10.4 93.8097 10.4H115.154C116.258 10.4 117.154 11.2955 117.154 12.4V98ZM153.506 63.056C153.506 64.1606 152.61 65.056 151.506 65.056H117.362C116.257 65.056 115.362 64.1606 115.362 63.056V46.064C115.362 44.9595 116.257 44.064 117.362 44.064H151.506C152.61 44.064 153.506 44.9595 153.506 46.064V63.056Z" stroke="black" stroke-width="16" mask="url(#path-1-outside-1_486_105)"/>
<path d="M211.831 47.088C211.831 45.9835 212.726 45.088 213.831 45.088H251.431C252.535 45.088 253.431 45.9835 253.431 47.088V62.032C253.431 63.1366 252.535 64.032 251.431 64.032H213.831C212.726 64.032 211.831 63.1366 211.831 62.032V47.088ZM213.623 78.416C213.623 79.5206 214.518 80.416 215.623 80.416H258.471C259.575 80.416 260.471 81.3115 260.471 82.416V98C260.471 99.1046 259.575 100 258.471 100H190.535C189.43 100 188.535 99.1046 188.535 98V12.4C188.535 11.2955 189.43 10.4 190.535 10.4H256.807C257.911 10.4 258.807 11.2955 258.807 12.4V27.984C258.807 29.0886 257.911 29.984 256.807 29.984H215.623C214.518 29.984 213.623 30.8795 213.623 31.984V78.416Z" stroke="black" stroke-width="16" mask="url(#path-1-outside-1_486_105)"/>
<path d="M344.169 101.792C337.001 101.792 330.387 100.64 324.329 98.336C318.27 96.032 312.979 92.7894 308.457 88.608C304.019 84.3414 300.563 79.392 298.089 73.76C295.614 68.128 294.377 61.9414 294.377 55.2C294.377 48.4587 295.614 42.272 298.089 36.64C300.563 31.008 304.019 26.1014 308.457 21.92C312.979 17.6534 318.27 14.368 324.329 12.064C330.387 9.76003 337.001 8.60803 344.169 8.60803C351.422 8.60803 358.035 9.76003 364.009 12.064C370.067 14.368 375.315 17.6107 379.753 21.792C384.19 25.9734 387.646 30.9227 390.121 36.64C392.681 42.272 393.961 48.4587 393.961 55.2C393.961 61.9414 392.681 68.1707 390.121 73.888C387.646 79.52 384.19 84.4267 379.753 88.608C375.315 92.7894 370.067 96.032 364.009 98.336C358.035 100.64 351.422 101.792 344.169 101.792ZM373.481 121.632C369.641 121.632 366.057 121.205 362.729 120.352C359.401 119.584 356.115 118.304 352.873 116.512C349.715 114.72 346.387 112.288 342.889 109.216C340.115 106.72 337.06 103.745 333.724 100.292C332.662 99.1929 333.195 97.3652 334.677 96.993L356.505 91.5096C357.321 91.3046 358.177 91.6336 358.658 92.3242C360.476 94.9356 362.132 97.0249 363.625 98.592C365.331 100.384 366.995 101.664 368.617 102.432C370.323 103.2 372.115 103.584 373.993 103.584C378.306 103.584 382.295 101.996 385.96 98.8209C386.852 98.0484 388.218 98.0922 388.979 98.9941L397.491 109.089C398.115 109.829 398.123 110.915 397.47 111.63C391.368 118.298 383.371 121.632 373.481 121.632ZM344.169 80.8C347.582 80.8 350.739 80.2027 353.641 79.008C356.627 77.8134 359.187 76.1067 361.321 73.888C363.539 71.584 365.246 68.8534 366.441 65.696C367.721 62.5387 368.361 59.04 368.361 55.2C368.361 51.2747 367.721 47.776 366.441 44.704C365.246 41.5467 363.539 38.8587 361.321 36.64C359.187 34.336 356.627 32.5867 353.641 31.392C350.739 30.1974 347.582 29.6 344.169 29.6C340.755 29.6 337.555 30.1974 334.569 31.392C331.667 32.5867 329.107 34.336 326.889 36.64C324.755 38.8587 323.049 41.5467 321.769 44.704C320.574 47.776 319.977 51.2747 319.977 55.2C319.977 59.04 320.574 62.5387 321.769 65.696C323.049 68.8534 324.755 71.584 326.889 73.888C329.107 76.1067 331.667 77.8134 334.569 79.008C337.555 80.2027 340.755 80.8 344.169 80.8Z" stroke="black" stroke-width="16" mask="url(#path-1-outside-1_486_105)"/>
<path d="M442.179 101.792C428.952 101.792 418.627 98.1654 411.203 90.912C403.779 83.6587 400.067 73.376 400.067 60.064V12.4C400.067 11.2955 400.962 10.4 402.067 10.4H423.411C424.515 10.4 425.411 11.2955 425.411 12.4V59.296C425.411 66.976 426.904 72.48 429.891 75.808C432.963 79.136 437.144 80.8 442.435 80.8C447.725 80.8 451.864 79.136 454.851 75.808C457.837 72.48 459.331 66.976 459.331 59.296V12.4C459.331 11.2955 460.226 10.4 461.331 10.4H482.291C483.395 10.4 484.291 11.2955 484.291 12.4V60.064C484.291 73.376 480.579 83.6587 473.155 90.912C465.731 98.1654 455.405 101.792 442.179 101.792Z" stroke="black" stroke-width="16" mask="url(#path-1-outside-1_486_105)"/>
<path d="M497.06 100C495.955 100 495.06 99.1046 495.06 98V12.4C495.06 11.2955 495.955 10.4 497.06 10.4H518.404C519.508 10.4 520.404 11.2955 520.404 12.4V98C520.404 99.1046 519.508 100 518.404 100H497.06Z" stroke="black" stroke-width="16" mask="url(#path-1-outside-1_486_105)"/>
<path d="M576.707 101.792C569.624 101.792 563.053 100.683 556.995 98.464C551.021 96.16 545.816 92.9174 541.379 88.736C537.027 84.5547 533.613 79.648 531.139 74.016C528.664 68.2987 527.427 62.0267 527.427 55.2C527.427 48.3734 528.664 42.144 531.139 36.512C533.613 30.7947 537.027 25.8454 541.379 21.664C545.816 17.4827 551.021 14.2827 556.995 12.064C563.053 9.76003 569.624 8.60803 576.707 8.60803C584.984 8.60803 592.365 10.0587 598.851 12.96C604.83 15.6002 609.891 19.3004 614.033 24.0605C614.726 24.8571 614.625 26.0559 613.842 26.7644L600.636 38.712C599.799 39.4694 598.506 39.3799 597.73 38.5604C595.202 35.8918 592.461 33.801 589.507 32.288C586.093 30.496 582.253 29.6 577.987 29.6C574.317 29.6 570.947 30.1974 567.875 31.392C564.803 32.5867 562.157 34.336 559.939 36.64C557.805 38.8587 556.099 41.5467 554.819 44.704C553.624 47.8614 553.027 51.36 553.027 55.2C553.027 59.04 553.624 62.5387 554.819 65.696C556.099 68.8534 557.805 71.584 559.939 73.888C562.157 76.1067 564.803 77.8134 567.875 79.008C570.947 80.2027 574.317 80.8 577.987 80.8C582.253 80.8 586.093 79.904 589.507 78.112C592.461 76.5991 595.202 74.5083 597.73 71.8396C598.506 71.0202 599.799 70.9307 600.636 71.688L613.831 83.6259C614.618 84.3384 614.715 85.5456 614.012 86.3415C609.874 91.0271 604.82 94.7266 598.851 97.44C592.365 100.341 584.984 101.792 576.707 101.792Z" stroke="black" stroke-width="16" mask="url(#path-1-outside-1_486_105)"/>
<path d="M646.016 76.7039C644.811 77.996 642.644 77.2035 642.557 75.4383L641.425 52.5882C641.398 52.0485 641.591 51.521 641.959 51.1257L679.318 11.0365C679.696 10.6306 680.226 10.4 680.781 10.4H703.247C704.99 10.4 705.899 12.4755 704.716 13.7566L669.415 52L655.335 66.72L646.016 76.7039ZM622.135 100C621.03 100 620.135 99.1046 620.135 98V12.4C620.135 11.2955 621.03 10.4 622.135 10.4H643.223C644.327 10.4 645.223 11.2955 645.223 12.4V98C645.223 99.1046 644.327 100 643.223 100H622.135ZM681.264 100C680.652 100 680.073 99.7195 679.694 99.2388L652.175 64.3572C651.563 63.5813 651.609 62.4746 652.284 61.7527L666.015 47.0643C666.857 46.163 668.307 46.232 669.06 47.2094L707.253 96.7794C708.266 98.0944 707.329 100 705.669 100H681.264Z" stroke="black" stroke-width="16" mask="url(#path-1-outside-1_486_105)"/>
<path d="M742.835 100C741.73 100 740.835 99.1046 740.835 98V12.4C740.835 11.2955 741.73 10.4 742.835 10.4H786.659C798.435 10.4 807.224 12.576 813.027 16.928C818.829 21.1947 821.731 26.8267 821.731 33.824C821.731 38.432 820.493 42.4854 818.019 45.984C815.629 49.3974 812.216 52.128 807.779 54.176C804.162 55.807 799.957 56.7603 795.162 57.0359C793.737 57.1178 792.768 55.6682 793.317 54.3508L794.21 52.2068C794.52 51.4615 795.249 50.9727 796.056 50.9909C801.815 51.1204 806.875 52.0968 811.235 53.92C815.928 55.7974 819.555 58.5707 822.115 62.24C824.76 65.824 826.083 70.2187 826.083 75.424C826.083 83.1894 822.925 89.248 816.611 93.6C810.381 97.8667 801.251 100 789.219 100H742.835ZM765.923 79.696C765.923 80.8006 766.818 81.696 767.923 81.696H787.171C791.523 81.696 794.808 80.9707 797.027 79.52C799.331 77.984 800.483 75.68 800.483 72.608C800.483 69.536 799.331 67.2747 797.027 65.824C794.808 64.288 791.523 63.52 787.171 63.52H766.131C765.026 63.52 764.131 62.6246 764.131 61.52V47.984C764.131 46.8795 765.026 45.984 766.131 45.984H783.331C787.597 45.984 790.797 45.2587 792.931 43.808C795.064 42.3574 796.131 40.1814 796.131 37.28C796.131 34.3787 795.064 32.2454 792.931 30.88C790.797 29.4294 787.597 28.704 783.331 28.704H767.923C766.818 28.704 765.923 29.5995 765.923 30.704V79.696Z" stroke="black" stroke-width="16" mask="url(#path-1-outside-1_486_105)"/>
<path d="M834.81 100C833.705 100 832.81 99.1046 832.81 98V12.4C832.81 11.2955 833.705 10.4 834.81 10.4H873.77C881.962 10.4 889.002 11.7227 894.89 14.368C900.863 17.0134 905.471 20.8534 908.714 25.888C911.956 30.8374 913.578 36.7254 913.578 43.552C913.578 50.2934 911.956 56.1387 908.714 61.088C905.471 65.952 900.863 69.7067 894.89 72.352C889.002 74.912 881.962 76.192 873.77 76.192H851.925C850.115 76.192 849.236 73.9791 850.553 72.7371L854.781 68.7487C856.057 67.5454 858.154 68.4499 858.154 70.2037V98C858.154 99.1046 857.258 100 856.154 100H834.81ZM889.29 100C888.629 100 888.011 99.6734 887.638 99.1273L868.096 70.4873C867.19 69.1597 868.14 67.36 869.748 67.36H891.917C892.576 67.36 893.193 67.6848 893.566 68.2284L913.22 96.8684C914.131 98.1955 913.181 100 911.571 100H889.29ZM858.154 63.3108C858.154 65.1088 855.966 65.9936 854.716 64.7011L850.168 59.9984C848.941 58.7291 849.84 56.608 851.606 56.608H872.234C877.524 56.608 881.45 55.456 884.01 53.152C886.655 50.848 887.978 47.648 887.978 43.552C887.978 39.3707 886.655 36.128 884.01 33.824C881.45 31.52 877.524 30.368 872.234 30.368H851.606C849.84 30.368 848.941 28.247 850.168 26.9777L854.716 22.2749C855.966 20.9824 858.154 21.8672 858.154 23.6653V63.3108Z" stroke="black" stroke-width="16" mask="url(#path-1-outside-1_486_105)"/>
<path d="M966.344 101.792C959.176 101.792 952.562 100.64 946.504 98.336C940.445 96.032 935.154 92.7894 930.632 88.608C926.194 84.3414 922.738 79.392 920.264 73.76C917.789 68.128 916.552 61.9414 916.552 55.2C916.552 48.4587 917.789 42.272 920.264 36.64C922.738 31.008 926.194 26.1014 930.632 21.92C935.154 17.6534 940.445 14.368 946.504 12.064C952.562 9.76003 959.176 8.60803 966.344 8.60803C973.597 8.60803 980.21 9.76003 986.184 12.064C992.242 14.368 997.49 17.6534 1001.93 21.92C1006.37 26.1014 1009.82 31.008 1012.3 36.64C1014.86 42.272 1016.14 48.4587 1016.14 55.2C1016.14 61.9414 1014.86 68.1707 1012.3 73.888C1009.82 79.52 1006.37 84.4267 1001.93 88.608C997.49 92.7894 992.242 96.032 986.184 98.336C980.21 100.64 973.597 101.792 966.344 101.792ZM966.344 80.8C969.757 80.8 972.914 80.2027 975.816 79.008C978.802 77.8134 981.362 76.1067 983.496 73.888C985.714 71.584 987.421 68.8534 988.616 65.696C989.896 62.5387 990.536 59.04 990.536 55.2C990.536 51.2747 989.896 47.776 988.616 44.704C987.421 41.5467 985.714 38.8587 983.496 36.64C981.362 34.336 978.802 32.5867 975.816 31.392C972.914 30.1974 969.757 29.6 966.344 29.6C962.93 29.6 959.73 30.1974 956.744 31.392C953.842 32.5867 951.282 34.336 949.064 36.64C946.93 38.8587 945.224 41.5467 943.944 44.704C942.749 47.776 942.152 51.2747 942.152 55.2C942.152 59.04 942.749 62.5387 943.944 65.696C945.224 68.8534 946.93 71.584 949.064 73.888C951.282 76.1067 953.842 77.8134 956.744 79.008C959.73 80.2027 962.93 80.8 966.344 80.8Z" stroke="black" stroke-width="16" mask="url(#path-1-outside-1_486_105)"/>
<path d="M1043.61 100C1042.74 100 1041.97 99.4416 1041.71 98.617L1013.95 13.017C1013.53 11.725 1014.49 10.4 1015.85 10.4H1037.74C1038.62 10.4 1039.39 10.9662 1039.65 11.7988L1062.84 85.3668C1063.24 86.6557 1062.28 87.968 1060.93 87.968H1053.24C1051.88 87.968 1050.92 86.6329 1051.35 85.3384L1075.75 11.7704C1076.02 10.9523 1076.78 10.4 1077.65 10.4H1098.03C1098.9 10.4 1099.68 10.9676 1099.94 11.8017L1123 85.3697C1123.41 86.6579 1122.44 87.968 1121.09 87.968H1113.9C1112.54 87.968 1111.58 86.642 1112 85.3497L1135.91 11.7817C1136.18 10.9578 1136.95 10.4 1137.81 10.4H1157.8C1159.16 10.4 1160.12 11.725 1159.71 13.017L1131.95 98.617C1131.68 99.4416 1130.91 100 1130.04 100H1105.83C1104.96 100 1104.18 99.4333 1103.92 98.6002L1084.44 36.6802C1084.04 35.3916 1085 34.08 1086.35 34.08H1088.16C1089.52 34.08 1090.49 35.4103 1090.06 36.7036L1069.74 98.6236C1069.47 99.4448 1068.71 100 1067.84 100H1043.61Z" stroke="black" stroke-width="16" mask="url(#path-1-outside-1_486_105)"/>
<path d="M1165.23 100C1164.13 100 1163.23 99.1046 1163.23 98V12.4C1163.23 11.2955 1164.13 10.4 1165.23 10.4H1183.16C1183.75 10.4 1184.32 10.6655 1184.7 11.1242L1230.79 66.7722C1231.87 68.0759 1230.95 70.048 1229.25 70.048H1225.65C1224.55 70.048 1223.65 69.1526 1223.65 68.048V12.4C1223.65 11.2955 1224.55 10.4 1225.65 10.4H1246.48C1247.59 10.4 1248.48 11.2955 1248.48 12.4V98C1248.48 99.1046 1247.59 100 1246.48 100H1228.56C1227.96 100 1227.4 99.7346 1227.02 99.2759L1180.92 43.6279C1179.84 42.3241 1180.77 40.352 1182.46 40.352H1186.07C1187.17 40.352 1188.07 41.2475 1188.07 42.352V98C1188.07 99.1046 1187.17 100 1186.07 100H1165.23Z" stroke="black" stroke-width="16" mask="url(#path-1-outside-1_486_105)"/>
<path d="M1314.36 51.696C1314.36 50.5915 1315.26 49.696 1316.36 49.696H1353.71C1354.81 49.696 1355.71 50.5915 1355.71 51.696V67.28C1355.71 68.3846 1354.81 69.28 1353.71 69.28H1316.36C1315.26 69.28 1314.36 68.3846 1314.36 67.28V51.696ZM1316.15 98C1316.15 99.1046 1315.26 100 1314.15 100H1292.81C1291.71 100 1290.81 99.1046 1290.81 98V12.4C1290.81 11.2955 1291.71 10.4 1292.81 10.4H1359.08C1360.19 10.4 1361.08 11.2955 1361.08 12.4V27.984C1361.08 29.0886 1360.19 29.984 1359.08 29.984H1318.15C1317.05 29.984 1316.15 30.8795 1316.15 31.984V98Z" stroke="black" stroke-width="16" mask="url(#path-1-outside-1_486_105)"/>
<path d="M1410.97 101.792C1403.8 101.792 1397.19 100.64 1391.13 98.336C1385.07 96.032 1379.78 92.7894 1375.26 88.608C1370.82 84.3414 1367.36 79.392 1364.89 73.76C1362.41 68.128 1361.18 61.9414 1361.18 55.2C1361.18 48.4587 1362.41 42.272 1364.89 36.64C1367.36 31.008 1370.82 26.1014 1375.26 21.92C1379.78 17.6534 1385.07 14.368 1391.13 12.064C1397.19 9.76003 1403.8 8.60803 1410.97 8.60803C1418.22 8.60803 1424.84 9.76003 1430.81 12.064C1436.87 14.368 1442.12 17.6534 1446.55 21.92C1450.99 26.1014 1454.45 31.008 1456.92 36.64C1459.48 42.272 1460.76 48.4587 1460.76 55.2C1460.76 61.9414 1459.48 68.1707 1456.92 73.888C1454.45 79.52 1450.99 84.4267 1446.55 88.608C1442.12 92.7894 1436.87 96.032 1430.81 98.336C1424.84 100.64 1418.22 101.792 1410.97 101.792ZM1410.97 80.8C1414.38 80.8 1417.54 80.2027 1420.44 79.008C1423.43 77.8134 1425.99 76.1067 1428.12 73.888C1430.34 71.584 1432.05 68.8534 1433.24 65.696C1434.52 62.5387 1435.16 59.04 1435.16 55.2C1435.16 51.2747 1434.52 47.776 1433.24 44.704C1432.05 41.5467 1430.34 38.8587 1428.12 36.64C1425.99 34.336 1423.43 32.5867 1420.44 31.392C1417.54 30.1974 1414.38 29.6 1410.97 29.6C1407.56 29.6 1404.36 30.1974 1401.37 31.392C1398.47 32.5867 1395.91 34.336 1393.69 36.64C1391.56 38.8587 1389.85 41.5467 1388.57 44.704C1387.37 47.776 1386.78 51.2747 1386.78 55.2C1386.78 59.04 1387.37 62.5387 1388.57 65.696C1389.85 68.8534 1391.56 71.584 1393.69 73.888C1395.91 76.1067 1398.47 77.8134 1401.37 79.008C1404.36 80.2027 1407.56 80.8 1410.97 80.8Z" stroke="black" stroke-width="16" mask="url(#path-1-outside-1_486_105)"/>
<path d="M1459.07 100C1457.44 100 1456.5 98.1544 1457.45 96.8314L1490.67 50.6939C1491.81 49.1121 1494.31 49.9276 1494.29 51.8767L1494.25 57.4295C1494.24 59.373 1491.74 60.1568 1490.62 58.5696L1458.81 13.5543C1457.87 12.2296 1458.82 10.4 1460.44 10.4H1484.07C1484.73 10.4 1485.34 10.7214 1485.72 11.26L1507.03 41.9879C1507.95 43.3063 1507.02 45.1109 1505.41 45.1277L1500.85 45.1757C1499.24 45.1927 1498.27 43.3868 1499.18 42.0511L1520.11 11.2752C1520.48 10.7277 1521.1 10.4 1521.76 10.4H1544.19C1545.82 10.4 1546.77 12.2464 1545.81 13.5693L1514.09 57.5967C1512.95 59.1718 1510.46 58.3689 1510.46 56.4275V50.9216C1510.46 48.9781 1512.96 48.1766 1514.09 49.7555L1547.87 96.834C1548.82 98.1573 1547.88 100 1546.25 100H1522.03C1521.36 100 1520.74 99.6675 1520.37 99.1135L1498.6 66.6335C1497.71 65.3047 1498.66 63.52 1500.26 63.52H1504.45C1506.04 63.52 1506.99 65.2916 1506.12 66.6213L1484.69 99.1013C1484.32 99.6624 1483.69 100 1483.02 100H1459.07Z" stroke="black" stroke-width="16" mask="url(#path-1-outside-1_486_105)"/>
</svg>
