<svg width="1300" height="480" viewBox="0 0 1300 480" fill="none" xmlns="http://www.w3.org/2000/svg">
<path d="M338 59L169.003 351.732L0 59H223.394L191.224 114.764L169.003 153.233L146.782 114.764H96.575L169.003 240.217L241.431 114.764L273.634 59H338Z" fill="white"/>
<path d="M356.8 153.6C348.907 153.6 342.293 151.147 336.96 146.24C331.84 141.12 329.28 134.827 329.28 127.36C329.28 119.893 331.84 113.707 336.96 108.8C342.293 103.68 348.907 101.12 356.8 101.12C364.693 101.12 371.2 103.68 376.32 108.8C381.653 113.707 384.32 119.893 384.32 127.36C384.32 134.827 381.653 141.12 376.32 146.24C371.2 151.147 364.693 153.6 356.8 153.6ZM378.88 174.72V352H334.08V174.72H378.88ZM633.703 172.16C655.463 172.16 672.956 178.88 686.183 192.32C699.623 205.547 706.343 224.107 706.343 248V352H661.543V254.08C661.543 240.213 658.023 229.653 650.983 222.4C643.943 214.933 634.343 211.2 622.183 211.2C610.023 211.2 600.316 214.933 593.063 222.4C586.023 229.653 582.503 240.213 582.503 254.08V352H537.703V254.08C537.703 240.213 534.183 229.653 527.143 222.4C520.103 214.933 510.503 211.2 498.343 211.2C485.969 211.2 476.156 214.933 468.903 222.4C461.863 229.653 458.343 240.213 458.343 254.08V352H413.543V174.72H458.343V196.16C464.103 188.693 471.463 182.827 480.423 178.56C489.596 174.293 499.623 172.16 510.503 172.16C524.369 172.16 536.743 175.147 547.623 181.12C558.503 186.88 566.929 195.2 572.903 206.08C578.663 195.84 586.983 187.627 597.863 181.44C608.956 175.253 620.903 172.16 633.703 172.16ZM727.735 262.72C727.735 244.8 731.255 228.907 738.295 215.04C745.548 201.173 755.255 190.507 767.415 183.04C779.788 175.573 793.548 171.84 808.695 171.84C821.922 171.84 833.442 174.507 843.255 179.84C853.282 185.173 861.282 191.893 867.255 200V174.72H912.375V352H867.255V326.08C861.495 334.4 853.495 341.333 843.255 346.88C833.228 352.213 821.602 354.88 808.375 354.88C793.442 354.88 779.788 351.04 767.415 343.36C755.255 335.68 745.548 324.907 738.295 311.04C731.255 296.96 727.735 280.853 727.735 262.72ZM867.255 263.36C867.255 252.48 865.122 243.2 860.855 235.52C856.588 227.627 850.828 221.653 843.575 217.6C836.322 213.333 828.535 211.2 820.215 211.2C811.895 211.2 804.215 213.227 797.175 217.28C790.135 221.333 784.375 227.307 779.895 235.2C775.628 242.88 773.495 252.053 773.495 262.72C773.495 273.387 775.628 282.773 779.895 290.88C784.375 298.773 790.135 304.853 797.175 309.12C804.428 313.387 812.108 315.52 820.215 315.52C828.535 315.52 836.322 313.493 843.575 309.44C850.828 305.173 856.588 299.2 860.855 291.52C865.122 283.627 867.255 274.24 867.255 263.36ZM1051.49 352L991.33 276.48V352H946.53V115.2H991.33V249.92L1050.85 174.72H1109.09L1031.01 263.68L1109.73 352H1051.49ZM1288.6 259.52C1288.6 265.92 1288.18 271.68 1287.32 276.8H1157.72C1158.79 289.6 1163.27 299.627 1171.16 306.88C1179.06 314.133 1188.76 317.76 1200.28 317.76C1216.92 317.76 1228.76 310.613 1235.8 296.32H1284.12C1279 313.387 1269.19 327.467 1254.68 338.56C1240.18 349.44 1222.36 354.88 1201.24 354.88C1184.18 354.88 1168.82 351.147 1155.16 343.68C1141.72 336 1131.16 325.227 1123.48 311.36C1116.02 297.493 1112.28 281.493 1112.28 263.36C1112.28 245.013 1116.02 228.907 1123.48 215.04C1130.95 201.173 1141.4 190.507 1154.84 183.04C1168.28 175.573 1183.75 171.84 1201.24 171.84C1218.1 171.84 1233.14 175.467 1246.36 182.72C1259.8 189.973 1270.15 200.32 1277.4 213.76C1284.87 226.987 1288.6 242.24 1288.6 259.52ZM1242.2 246.72C1241.99 235.2 1237.83 226.027 1229.72 219.2C1221.62 212.16 1211.7 208.64 1199.96 208.64C1188.87 208.64 1179.48 212.053 1171.8 218.88C1164.34 225.493 1159.75 234.773 1158.04 246.72H1242.2Z" fill="white"/>
</svg>
