<svg width="1319" height="480" viewBox="0 0 1319 480" fill="none" xmlns="http://www.w3.org/2000/svg">
<path d="M375.8 153.6C367.907 153.6 361.293 151.147 355.96 146.24C350.84 141.12 348.28 134.827 348.28 127.36C348.28 119.893 350.84 113.707 355.96 108.8C361.293 103.68 367.907 101.12 375.8 101.12C383.693 101.12 390.2 103.68 395.32 108.8C400.653 113.707 403.32 119.893 403.32 127.36C403.32 134.827 400.653 141.12 395.32 146.24C390.2 151.147 383.693 153.6 375.8 153.6ZM397.88 174.72V352H353.08V174.72H397.88ZM652.703 172.16C674.463 172.16 691.956 178.88 705.183 192.32C718.623 205.547 725.343 224.107 725.343 248V352H680.543V254.08C680.543 240.213 677.023 229.653 669.983 222.4C662.943 214.933 653.343 211.2 641.183 211.2C629.023 211.2 619.316 214.933 612.063 222.4C605.023 229.653 601.503 240.213 601.503 254.08V352H556.703V254.08C556.703 240.213 553.183 229.653 546.143 222.4C539.103 214.933 529.503 211.2 517.343 211.2C504.969 211.2 495.156 214.933 487.903 222.4C480.863 229.653 477.343 240.213 477.343 254.08V352H432.543V174.72H477.343V196.16C483.103 188.693 490.463 182.827 499.423 178.56C508.596 174.293 518.623 172.16 529.503 172.16C543.369 172.16 555.743 175.147 566.623 181.12C577.503 186.88 585.929 195.2 591.903 206.08C597.663 195.84 605.983 187.627 616.863 181.44C627.956 175.253 639.903 172.16 652.703 172.16ZM746.735 262.72C746.735 244.8 750.255 228.907 757.295 215.04C764.548 201.173 774.255 190.507 786.415 183.04C798.788 175.573 812.548 171.84 827.695 171.84C840.922 171.84 852.442 174.507 862.255 179.84C872.282 185.173 880.282 191.893 886.255 200V174.72H931.375V352H886.255V326.08C880.495 334.4 872.495 341.333 862.255 346.88C852.228 352.213 840.602 354.88 827.375 354.88C812.442 354.88 798.788 351.04 786.415 343.36C774.255 335.68 764.548 324.907 757.295 311.04C750.255 296.96 746.735 280.853 746.735 262.72ZM886.255 263.36C886.255 252.48 884.122 243.2 879.855 235.52C875.588 227.627 869.828 221.653 862.575 217.6C855.322 213.333 847.535 211.2 839.215 211.2C830.895 211.2 823.215 213.227 816.175 217.28C809.135 221.333 803.375 227.307 798.895 235.2C794.628 242.88 792.495 252.053 792.495 262.72C792.495 273.387 794.628 282.773 798.895 290.88C803.375 298.773 809.135 304.853 816.175 309.12C823.428 313.387 831.108 315.52 839.215 315.52C847.535 315.52 855.322 313.493 862.575 309.44C869.828 305.173 875.588 299.2 879.855 291.52C884.122 283.627 886.255 274.24 886.255 263.36ZM1070.49 352L1010.33 276.48V352H965.53V115.2H1010.33V249.92L1069.85 174.72H1128.09L1050.01 263.68L1128.73 352H1070.49ZM1307.6 259.52C1307.6 265.92 1307.18 271.68 1306.32 276.8H1176.72C1177.79 289.6 1182.27 299.627 1190.16 306.88C1198.06 314.133 1207.76 317.76 1219.28 317.76C1235.92 317.76 1247.76 310.613 1254.8 296.32H1303.12C1298 313.387 1288.19 327.467 1273.68 338.56C1259.18 349.44 1241.36 354.88 1220.24 354.88C1203.18 354.88 1187.82 351.147 1174.16 343.68C1160.72 336 1150.16 325.227 1142.48 311.36C1135.02 297.493 1131.28 281.493 1131.28 263.36C1131.28 245.013 1135.02 228.907 1142.48 215.04C1149.95 201.173 1160.4 190.507 1173.84 183.04C1187.28 175.573 1202.75 171.84 1220.24 171.84C1237.1 171.84 1252.14 175.467 1265.36 182.72C1278.8 189.973 1289.15 200.32 1296.4 213.76C1303.87 226.987 1307.6 242.24 1307.6 259.52ZM1261.2 246.72C1260.99 235.2 1256.83 226.027 1248.72 219.2C1240.62 212.16 1230.7 208.64 1218.96 208.64C1207.87 208.64 1198.48 212.053 1190.8 218.88C1183.34 225.493 1178.75 234.773 1177.04 246.72H1261.2Z" fill="#1A2042"/>
<path d="M338 59.0001L169.003 351.732L0 59.0001H223.394L191.224 114.764L169.003 153.233L146.782 114.764H96.575L169.003 240.217L241.431 114.764L273.634 59.0001H338Z" fill="url(#paint0_linear_468_186)"/>
<defs>
<linearGradient id="paint0_linear_468_186" x1="246.3" y1="43.5692" x2="107.65" y2="182.218" gradientUnits="userSpaceOnUse">
<stop stop-color="#9C92FF"/>
<stop offset="1" stop-color="#543CE5"/>
</linearGradient>
</defs>
</svg>
